<?xml version="1.0" encoding="UTF-8"?>
<svg id="Layer_2" data-name="Layer 2" xmlns="http://www.w3.org/2000/svg" viewBox="0 0 62.79 66.72">
  <defs>
    <style>
      .cls-1 {
        fill: #000;
        stroke-width: 0px;
      }
    </style>
  </defs>
  <g id="sonrisas">
    <path class="cls-1" d="M61.98,39.6c-.54-1.18-1.26-2.22-2.14-3.15-.89-.92-1.89-1.68-3-2.29-1.11-.6-2.24-1.06-3.38-1.38,2.22-1.21,3.83-2.72,4.81-4.53.98-1.81,1.48-3.32,1.48-4.53,0-4.13-.16-7.67-.48-10.63-.32-2.95-1.29-5.42-2.91-7.39-1.62-1.97-4.15-3.41-7.58-4.34-3.43-.92-8.26-1.38-14.49-1.38H.07v14.89h-.07v37.01h.07v14.82h37.27c6.35,0,11.26-.56,14.73-1.67,3.46-1.11,5.99-2.68,7.58-4.72,1.59-2.03,2.51-4.48,2.76-7.34.25-2.86.38-6,.38-9.44,0-1.46-.27-2.78-.81-3.96ZM3.78,16.68h38.8c1.46,0,3,.11,4.62.33,1.62.22,3.15.62,4.58,1.19,1.05.42,1.96.95,2.73,1.59,1.83,1.89,3.37,5.16.28,8.42-3.11,3.26-8.61,3.29-8.61,3.29H3.78v-14.83ZM57.86,46.65c-.52.47-1.12.9-1.84,1.3-2.54,1.4-6,2.1-10.39,2.1H3.78v-14.75h45.82c2.36,0,5.24.73,8.2,3.35,2.93,2.59,1.81,6.17.06,8.01Z"/>
  </g>
</svg>