<?xml version="1.0" encoding="UTF-8"?>
<svg id="Layer_2" data-name="Layer 2" xmlns="http://www.w3.org/2000/svg" viewBox="0 0 64.95 69.1">
  <defs>
    <style>
      .cls-1 {
        fill: #000;
        stroke-width: 0px;
      }
    </style>
  </defs>
  <g id="sonrisas">
    <path class="cls-1" d="M64.8,48.52c-1.72-16.04-12.75-21.3-19.15-23.02-.05-.01-.1-.03-.15-.04-1.42-.36-2.89-.62-4.42-.78.04,0,.1,0,.14,0v-.79c10.96-.22,10.29-9.09,7.33-13.41l-.14-.2c-1.15-1.6-2.66-3.13-4.54-4.59-2.25-1.8-4.79-3.2-7.62-4.19-2.83-1-5.69-1.5-8.58-1.5-4.05,0-7.79.95-11.23,2.85-3.44,1.89-6.12,4.71-8.05,8.44L4.53,1.45H0v66.67h8.97c.48,0,.94-.01,1.4-.03h.03c.19,0,.38.01.57.01h2.93c.52,0,1.04-.04,1.54-.11,5.32-.75,9.4-5.31,9.4-10.84,0-1-.13-1.98-.39-2.9-.5-1.86-1.49-3.52-2.82-4.84-1.63-1.64-3.79-2.76-6.2-3.1v-4.28s8.15-1.14,12.52,9.02c3.13,7.31,4.52,13.05,9.72,15.98.02,0,.04.02.06.03,1.46.71,2.96,1.24,4.5,1.59.01,0,.03.01.05.01.32.07.64.13.95.19.11.02.22.04.33.05.57.08,1.14.13,1.72.17.04,0,.08,0,.13,0,2.21.12,4.45-.13,6.59-.72.13-.04.27-.08.41-.12,1.07-.35,2.13-.8,3.2-1.35,2.36-1.22,4.37-2.88,6.04-5.01.01-.01.03-.03.04-.05,2.42-3.32,3.73-7.77,3.13-13.31ZM15.43,21.8c1.54-2.25,3.73-4.04,6.56-5.35,2.83-1.32,5.56-1.98,8.2-1.98s4.73.71,5.88,2.12c.64.71.96,1.51.96,2.41s-.38,1.65-1.16,2.27c-.77.61-1.73.82-2.89.62-2.7-.39-5.2-.58-7.52-.58-4.11,0-7.45.74-10.03,2.22v-1.73ZM47.11,41.66c-1.06,1.03-2.33,1.54-3.81,1.54-.58,0-1-.03-1.25-.1-.97-.2-1.88-.66-2.75-1.4s-2.24-2.04-4.1-3.91l-2.7-2.8c-2.06-2.06-4.55-3.68-7.47-4.87-2.92-1.19-5.52-1.79-7.77-1.79-.44,0-1.06.06-1.83.19v-1.64c.83-.71,2.17-1.26,4-1.68,1.83-.42,3.9-.63,6.22-.63,3.66,0,7.26.5,10.8,1.49,3.54,1,6.34,2.46,8.39,4.39,2.57,2.38,3.86,4.79,3.86,7.23,0,1.61-.53,2.92-1.59,3.95Z"/>
  </g>
</svg>