<?xml version="1.0" encoding="UTF-8"?>
<svg id="Layer_2" data-name="Layer 2" xmlns="http://www.w3.org/2000/svg" viewBox="0 0 62.72 66.72">
  <defs>
    <style>
      .cls-1 {
        fill: #000;
        stroke-width: 0px;
      }
    </style>
  </defs>
  <g id="sonrisas">
    <path class="cls-1" d="M5.34,0h50.17c1.6,0,2.94.53,4.14,1.73,1.2,1.2,1.73,2.54,1.73,4,0,1.07-.27,2.14-.8,3.2-.67,1.07-1.6,1.87-2.94,2.4l-25.49,10.01c-1.07.4-1.6.93-1.6,1.87,0,1.07.53,1.73,1.6,2.14l18.41,6.54c4,1.47,7.07,3.6,9.07,6.54,2,2.94,3.07,6.14,3.07,9.74,0,3.34-.67,6.27-2.14,9.07-1.47,2.8-3.47,5.07-6.27,6.81-2.8,1.73-6,2.67-9.74,2.67H5.47c-1.6,0-2.94-.53-3.87-1.73-1.07-1.07-1.6-2.27-1.6-3.6V5.34c0-1.47.53-2.67,1.73-3.74,1.07-1.07,2.27-1.6,3.6-1.6ZM31.36,62.18c.67.8,1.33,1.2,2,1.2.53,0,.93-.27,1.33-.67.4-.4.53-.8.53-1.33,0-.67-.13-1.47-.4-2.4l-7.47-31.49c-.4-1.73-.67-3.2-.67-4.27,0-.93.27-2,.93-3.07.67-.93,1.73-1.73,3.2-2.4l25.09-9.87c1.07-.4,1.6-1.07,1.6-2.14,0-.67-.27-1.2-.8-1.6-.67-.4-1.33-.4-2.14-.13L5.74,21.22c-1.2.4-1.87,1.07-1.87,2,0,.4.27,1.07.67,1.73l26.82,37.23Z"/>
  </g>
</svg>