<?xml version="1.0" encoding="UTF-8"?>
<svg id="Layer_2" data-name="Layer 2" xmlns="http://www.w3.org/2000/svg" viewBox="0 0 40.34 15.09">
  <defs>
    <style>
      .cls-1 {
        fill: #fff;
        stroke-width: 0px;
      }
    </style>
  </defs>
  <g id="sonrisas">
    <g>
      <path class="cls-1" d="M0,0h2.22l4.21,9.23,1.33,3.22h.13l1.33-3.22L13.4,0h2.24v14.86h-1.6V4.57l.07-2.15h-.13l-.91,2.15-4.3,9.41h-1.91L2.55,4.57l-.91-2.15h-.13l.07,2.15v10.29H0V0Z"/>
      <path class="cls-1" d="M27.93,3.9v10.96h-1.44v-2.42h-.07c-.44,1.26-1.69,2.64-3.97,2.64-2.86,0-4.19-1.97-4.19-4.59V3.9h1.6v6.37c0,2.37.98,3.42,3.11,3.42,2.02,0,3.39-1.06,3.39-3.64V3.9h1.57Z"/>
      <path class="cls-1" d="M30.44,0h1.6v14.86h-1.6V0Z"/>
      <path class="cls-1" d="M36.88,5.28v6.57c0,1.29.6,1.58,2.02,1.58h1.44v1.29c-.38.07-1.06.18-1.86.18-2.02,0-3.19-.8-3.19-3.13v-6.48h-1.84v-1.38h1.86l.38-2.8h1.2v2.8h3.46v1.38h-3.46Z"/>
    </g>
  </g>
</svg>