<?xml version="1.0" encoding="UTF-8"?>
<svg width="83px" height="19px" viewBox="0 0 83 19" version="1.1" xmlns="http://www.w3.org/2000/svg" xmlns:xlink="http://www.w3.org/1999/xlink">
    <title>Group 3</title>
    <g id="Page-1" stroke="none" stroke-width="1" fill="none" fill-rule="evenodd">
        <g id="Group-3" transform="translate(0, -0)">
            <rect id="Rectangle-Copy-2" fill-opacity="0" fill="#D8D8D8" x="0" y="5.68434189e-14" width="83" height="19"></rect>
            <g id="line3" transform="translate(1, 0)" fill="#000000" fill-rule="nonzero">
                <polygon id="Path" points="0 0 2.22 0 6.43 9.23 7.76 12.45 7.89 12.45 9.22 9.23 13.4 0 15.64 0 15.64 14.86 14.04 14.86 14.04 4.57 14.11 2.42 13.98 2.42 13.07 4.57 8.77 13.98 6.86 13.98 2.55 4.57 1.64 2.42 1.51 2.42 1.58 4.57 1.58 14.86 0 14.86"></polygon>
                <path d="M27.93,3.9 L27.93,14.86 L26.49,14.86 L26.49,12.44 L26.42,12.44 C25.98,13.7 24.73,15.08 22.45,15.08 C19.59,15.08 18.26,13.11 18.26,10.49 L18.26,3.9 L19.86,3.9 L19.86,10.27 C19.86,12.64 20.84,13.69 22.97,13.69 C24.99,13.69 26.36,12.63 26.36,10.05 L26.36,3.9 L27.93,3.9 Z" id="Path"></path>
                <polygon id="Path" points="30.44 0 32.04 0 32.04 14.86 30.44 14.86 30.44 0"></polygon>
                <path d="M36.88,5.28 L36.88,11.85 C36.88,13.14 37.48,13.43 38.9,13.43 L40.34,13.43 L40.34,14.72 C39.96,14.79 39.28,14.9 38.48,14.9 C36.46,14.9 35.29,14.1 35.29,11.77 L35.29,5.29 L33.45,5.29 L33.45,3.91 L35.31,3.91 L35.69,1.11 L36.89,1.11 L36.89,3.91 L40.35,3.91 L40.35,5.29 L36.89,5.29 L36.88,5.28 Z" id="Path"></path>
            </g>
        </g>
    </g>
</svg>