<?xml version="1.0" encoding="UTF-8"?>
<svg id="Layer_2" data-name="Layer 2" xmlns="http://www.w3.org/2000/svg" viewBox="0 0 83.38 18.86">
  <defs>
    <style>
      .cls-1 {
        fill: #fff;
        stroke-width: 0px;
      }
    </style>
  </defs>
  <g id="sonrisas">
    <g>
      <path class="cls-1" d="M0,0h6.46c2.68,0,4.48,1.26,4.48,3.71,0,1.66-.98,2.88-2.84,3.24v.13c2.17.35,3.28,1.8,3.28,3.7,0,2.57-1.86,4.08-4.75,4.08H0V0ZM6.23,6.43c2.17,0,3.11-.71,3.11-2.48s-.8-2.51-2.97-2.51H1.58v4.99h4.66ZM6.59,13.42c2.22,0,3.19-.78,3.19-2.82s-1-2.82-3.19-2.82H1.58v5.63h5.01Z"/>
      <path class="cls-1" d="M21.23,7.19v.62h-1.6v-.38c0-1.71-.53-2.37-2.11-2.37-1.71,0-2.42.78-2.42,2.55v7.25h-1.6V3.77h1.44v1.84h.11c.35-1.02,1.42-1.93,3.04-1.93,2.26,0,3.13,1.6,3.13,3.51Z"/>
      <path class="cls-1" d="M31.26,8.01v6.86h-1.44v-2.02l-.11-.02c-.64,1.26-2.04,2.26-4.13,2.26s-3.5-1.02-3.5-2.86,1.42-2.75,3.82-3.08l3.86-.53v-.8c0-1.93-.82-2.71-2.88-2.71s-2.93.78-2.93,2.53v.33h-1.53v-.18c0-2.29,1.75-4.1,4.59-4.1s4.26,1.89,4.26,4.33ZM29.75,10.18v-.38l-3.73.53c-1.75.24-2.4.6-2.4,1.77s.71,1.64,2.4,1.64c1.89,0,3.73-.98,3.73-3.57Z"/>
      <path class="cls-1" d="M43.24,8.14v6.72h-1.57v-6.37c0-2.37-.78-3.42-3.02-3.42s-3.35,1.02-3.35,3.46v6.32h-1.6V3.9h1.44v2.26h.07c.42-1.15,1.66-2.48,3.93-2.48,2.82,0,4.1,1.82,4.1,4.46Z"/>
      <path class="cls-1" d="M55.34,0v14.86h-1.42v-2.11h-.09c-.49,1.38-1.77,2.33-3.84,2.33-3.08,0-4.81-2.24-4.81-5.7s1.64-5.7,4.64-5.7c2.11,0,3.46,1.11,3.93,2.31V0h1.6ZM53.74,10.34v-1.89c0-2.26-1.31-3.39-3.48-3.39s-3.48.98-3.48,4.33,1.31,4.33,3.48,4.33,3.48-1.13,3.48-3.37Z"/>
      <path class="cls-1" d="M57.76,0h1.58v2.44h-1.58V0ZM57.76,3.77h1.58v11.09h-1.58V3.77Z"/>
      <path class="cls-1" d="M71.29,8.14v6.72h-1.57v-6.37c0-2.37-.78-3.42-3.02-3.42s-3.35,1.02-3.35,3.46v6.32h-1.6V3.9h1.44v2.26h.07c.42-1.15,1.66-2.48,3.93-2.48,2.82,0,4.1,1.82,4.1,4.46Z"/>
      <path class="cls-1" d="M83.38,3.9v10.49c0,2.97-1.91,4.46-4.79,4.46s-4.77-1.46-4.77-3.99h1.57c0,1.8.91,2.57,3.22,2.57s3.17-.84,3.17-3.04v-2.79h-.02c-.51,1.26-1.89,2.28-3.79,2.28-3.02,0-4.75-2-4.75-5.1s1.71-5.1,4.77-5.1c1.93,0,3.39.95,3.88,2.35h.09v-2.13h1.42ZM81.79,9.12v-.67c0-2.26-1.49-3.39-3.53-3.39s-3.44.84-3.44,3.73,1.4,3.73,3.53,3.73c1.97,0,3.44-1.13,3.44-3.39Z"/>
    </g>
  </g>
</svg>