<?xml version="1.0" encoding="UTF-8"?>
<svg id="Layer_2" data-name="Layer 2" xmlns="http://www.w3.org/2000/svg" viewBox="0 0 53.27 15.33">
  <defs>
    <style>
      .cls-1 {
        fill: #fff;
        stroke-width: 0px;
      }
    </style>
  </defs>
  <g id="sonrisas">
    <g>
      <path class="cls-1" d="M0,10.58v-.33h1.57v.24c0,2.06,1.09,3.35,4.39,3.35,2.46,0,3.62-.82,3.62-2.53s-.75-2.29-2.99-2.77l-2.57-.58C1.69,7.48.09,6.41.09,4.02.09,1.86,1.86,0,5.39,0c3.86,0,5.55,2.35,5.55,4.77v.29h-1.57v-.24c0-2.04-1.06-3.35-3.99-3.35-2.46,0-3.68.82-3.68,2.44s.82,2.17,3,2.68l2.57.6c2.46.55,3.93,1.71,3.93,4.04s-1.75,4.08-5.26,4.08C1.8,15.31,0,13.13,0,10.58Z"/>
      <path class="cls-1" d="M12.65,9.61c0-3.33,2.11-5.7,5.32-5.7s5.24,2.37,5.24,5.7-2.04,5.7-5.24,5.7-5.32-2.37-5.32-5.7ZM21.65,9.61c0-2.73-1.04-4.26-3.68-4.26s-3.75,1.53-3.75,4.26,1.06,4.28,3.75,4.28,3.68-1.55,3.68-4.28Z"/>
      <path class="cls-1" d="M24.81,9.63c0-3.35,1.95-5.72,5.19-5.72,2.8,0,4.68,1.8,4.68,4.37v.16h-1.58v-.13c0-1.91-1.02-2.95-3.17-2.95-2.51,0-3.55,1.57-3.55,4.28s1.04,4.26,3.55,4.26c2.15,0,3.17-1.04,3.17-2.95v-.13h1.58v.16c0,2.57-1.89,4.37-4.68,4.37-3.24,0-5.19-2.37-5.19-5.7Z"/>
      <path class="cls-1" d="M36.57.22h1.57v2.44h-1.57V.22ZM36.57,3.99h1.57v11.09h-1.57V3.99Z"/>
      <path class="cls-1" d="M49.24,8.23v6.86h-1.44v-2.02l-.11-.02c-.64,1.26-2.04,2.26-4.13,2.26s-3.51-1.02-3.51-2.86,1.42-2.75,3.82-3.08l3.86-.53v-.8c0-1.93-.82-2.71-2.88-2.71s-2.93.78-2.93,2.53v.33h-1.53v-.18c0-2.29,1.75-4.1,4.59-4.1s4.26,1.89,4.26,4.33ZM47.73,10.4v-.38l-3.73.53c-1.75.24-2.4.6-2.4,1.77s.71,1.64,2.4,1.64c1.89,0,3.73-.98,3.73-3.57Z"/>
      <path class="cls-1" d="M51.68.22h1.6v14.86h-1.6V.22Z"/>
    </g>
  </g>
</svg>