<?xml version="1.0" encoding="UTF-8"?>
<svg width="83px" height="19px" viewBox="0 0 83 19" version="1.1" xmlns="http://www.w3.org/2000/svg" xmlns:xlink="http://www.w3.org/1999/xlink">
    <title>Group 2</title>
    <g id="Page-1" stroke="none" stroke-width="1" fill="none" fill-rule="evenodd">
        <g id="Group-2">
            <rect id="Rectangle-Copy" fill-opacity="0" fill="#D8D8D8" x="0" y="0" width="83" height="19"></rect>
            <g id="line2" transform="translate(0, 2)" fill="#000000" fill-rule="nonzero">
                <path d="M0,10.58 L0,10.25 L1.57,10.25 L1.57,10.49 C1.57,12.55 2.66,13.84 5.96,13.84 C8.42,13.84 9.58,13.02 9.58,11.31 C9.58,9.6 8.83,9.02 6.59,8.54 L4.02,7.96 C1.69,7.48 0.09,6.41 0.09,4.02 C0.09,1.86 1.86,0 5.39,0 C9.25,0 10.94,2.35 10.94,4.77 L10.94,5.06 L9.37,5.06 L9.37,4.82 C9.37,2.78 8.31,1.47 5.38,1.47 C2.92,1.47 1.7,2.29 1.7,3.91 C1.7,5.53 2.52,6.08 4.7,6.59 L7.27,7.19 C9.73,7.74 11.2,8.9 11.2,11.23 C11.2,13.56 9.45,15.31 5.94,15.31 C1.8,15.31 0,13.13 0,10.58 Z" id="Path"></path>
                <path d="M12.65,9.61 C12.65,6.28 14.76,3.91 17.97,3.91 C21.18,3.91 23.21,6.28 23.21,9.61 C23.21,12.94 21.17,15.31 17.97,15.31 C14.77,15.31 12.65,12.94 12.65,9.61 L12.65,9.61 Z M21.65,9.61 C21.65,6.88 20.61,5.35 17.97,5.35 C15.33,5.35 14.22,6.88 14.22,9.61 C14.22,12.34 15.28,13.89 17.97,13.89 C20.66,13.89 21.65,12.34 21.65,9.61 Z" id="Shape"></path>
                <path d="M24.81,9.63 C24.81,6.28 26.76,3.91 30,3.91 C32.8,3.91 34.68,5.71 34.68,8.28 L34.68,8.44 L33.1,8.44 L33.1,8.31 C33.1,6.4 32.08,5.36 29.93,5.36 C27.42,5.36 26.38,6.93 26.38,9.64 C26.38,12.35 27.42,13.9 29.93,13.9 C32.08,13.9 33.1,12.86 33.1,10.95 L33.1,10.82 L34.68,10.82 L34.68,10.98 C34.68,13.55 32.79,15.35 30,15.35 C26.76,15.35 24.81,12.98 24.81,9.65 L24.81,9.63 Z" id="Path"></path>
                <path d="M36.57,0.22 L38.14,0.22 L38.14,2.66 L36.57,2.66 L36.57,0.22 Z M36.57,3.99 L38.14,3.99 L38.14,15.08 L36.57,15.08 L36.57,3.99 Z" id="Shape"></path>
                <path d="M49.24,8.23 L49.24,15.09 L47.8,15.09 L47.8,13.07 L47.69,13.05 C47.05,14.31 45.65,15.31 43.56,15.31 C41.47,15.31 40.05,14.29 40.05,12.45 C40.05,10.61 41.47,9.7 43.87,9.37 L47.73,8.84 L47.73,8.04 C47.73,6.11 46.91,5.33 44.85,5.33 C42.79,5.33 41.92,6.11 41.92,7.86 L41.92,8.19 L40.39,8.19 L40.39,8.01 C40.39,5.72 42.14,3.91 44.98,3.91 C47.82,3.91 49.24,5.8 49.24,8.24 L49.24,8.23 Z M47.73,10.4 L47.73,10.02 L44,10.55 C42.25,10.79 41.6,11.15 41.6,12.32 C41.6,13.49 42.31,13.96 44,13.96 C45.89,13.96 47.73,12.98 47.73,10.39 L47.73,10.4 Z" id="Shape"></path>
                <polygon id="Path" points="51.68 0.22 53.28 0.22 53.28 15.08 51.68 15.08"></polygon>
            </g>
        </g>
    </g>
</svg>