<svg width="116" height="38" viewBox="0 0 116 38" fill="none" xmlns="http://www.w3.org/2000/svg">
<path d="M69.9371 26.4764C69.9371 35.5254 61.6044 37.9943 55.3548 37.9943C46.375 37.9943 38.9221 35.4192 38.7461 26.3368H47.0675C47.7486 30.4647 51.0465 31.7215 54.9859 31.7215C58.9252 31.7215 61.9109 30.3976 61.9109 27.0182C61.9109 23.3987 58.1078 22.4938 53.6349 21.6503C47.0107 20.3823 39.66 19.2373 39.66 10.9759C39.66 3.13349 46.7099 0.117172 53.9414 0.117172C64.346 0.117172 69.3071 4.3847 69.3241 11.5401H61.5987C61.0595 7.52391 58.5108 6.14981 53.9414 6.14981C49.7126 6.14981 47.4478 7.71382 47.4478 10.1939C47.4478 13.5733 50.9387 14.3553 55.474 15.3161C62.8305 16.7628 69.9371 18.2095 69.9371 26.4764Z" fill="black"/>
<path d="M116 0.781914V37.3296H113.786V6.98771L113.457 7.8144L112.078 11.3279L101.849 37.3296H92.4094V6.98771L80.4779 37.3296H70.1301L85.8761 0.781914H94.6345V32.2633L107.241 0.781914H116Z" fill="black"/>
<path d="M36.0726 26.5715C35.1133 17.7851 28.9716 14.9028 25.4126 13.9644C25.3842 13.9588 25.3558 13.9533 25.3275 13.9421C24.5385 13.7466 23.7154 13.6069 22.864 13.5176C22.8867 13.5176 22.915 13.5176 22.9434 13.5176V13.0875C29.0397 12.9702 28.6765 8.10495 27.0247 5.73659L26.9452 5.63046C26.3038 4.75349 25.4637 3.91563 24.4193 3.11686C23.1648 2.13376 21.7514 1.36293 20.1791 0.821108C18.6068 0.273703 17.0117 0 15.3997 0C13.1462 0 11.063 0.519477 9.14445 1.55843C7.23155 2.59738 5.7387 4.13906 4.66021 6.18345L2.52026 0.787594H0V37.3129H4.98943C5.25621 37.3129 5.51165 37.3074 5.76708 37.2962H5.77843C5.88628 37.2962 5.98845 37.3018 6.09062 37.3018H7.71971C8.0092 37.3018 8.29869 37.2794 8.57682 37.2403C11.5398 36.827 13.8103 34.3301 13.8103 31.3027C13.8103 30.7553 13.7365 30.219 13.589 29.7107C13.3108 28.6941 12.7602 27.7836 12.0223 27.0575C11.1141 26.1582 9.91642 25.5437 8.57115 25.3594V23.0134C8.57115 23.0134 13.1122 22.3878 15.5416 27.9568C17.2842 31.9618 18.0618 35.101 20.9511 36.7097C20.9624 36.7097 20.9738 36.7209 20.9851 36.7264C21.7968 37.1174 22.6312 37.4079 23.4884 37.5978C23.494 37.5978 23.5054 37.6034 23.5167 37.6034C23.6927 37.6425 23.8687 37.676 24.0446 37.7095C24.1071 37.7207 24.1695 37.7319 24.2263 37.7375C24.5385 37.7766 24.862 37.8101 25.1799 37.8268C25.2026 37.8268 25.2253 37.8268 25.248 37.8268C26.4797 37.8939 27.7285 37.7598 28.9149 37.4358C28.9886 37.4135 29.0681 37.3911 29.1476 37.3688C29.7436 37.1789 30.3339 36.9275 30.9242 36.6315C32.2355 35.9612 33.3594 35.0507 34.2846 33.8889C34.2903 33.8833 34.2959 33.8721 34.3073 33.8609C35.6526 32.04 36.3848 29.6046 36.0499 26.5715H36.0726ZM8.58818 11.9368C9.44529 10.7023 10.6657 9.72483 12.238 9.00426C13.8103 8.27811 15.3316 7.92062 16.8017 7.92062C18.2719 7.92062 19.4355 8.30604 20.0769 9.08246C20.4345 9.47347 20.6105 9.90916 20.6105 10.4063C20.6105 10.9034 20.4005 11.3112 19.9691 11.6463C19.5434 11.9815 19.0041 12.0932 18.357 11.9871C16.8528 11.7748 15.4621 11.6687 14.1679 11.6687C11.8804 11.6687 10.0186 12.0764 8.58818 12.8864V11.9368ZM26.2243 22.8179C25.634 23.382 24.9244 23.6613 24.1071 23.6613C23.7835 23.6613 23.5508 23.6446 23.4089 23.6111C22.8696 23.5049 22.3645 23.248 21.8763 22.8458C21.3938 22.4436 20.6332 21.7286 19.5944 20.7065L18.0902 19.176C16.9436 18.0476 15.5586 17.1595 13.9295 16.5115C12.3004 15.858 10.8587 15.534 9.60423 15.534C9.35447 15.534 9.0139 15.5675 8.58818 15.6402V14.7408C9.05363 14.3554 9.79722 14.0482 10.8189 13.8192C11.8407 13.5902 12.993 13.4729 14.2815 13.4729C16.3192 13.4729 18.323 13.7466 20.2926 14.2884C22.2623 14.8358 23.8176 15.6346 24.9642 16.6959C26.3946 17.9974 27.1098 19.3212 27.1098 20.6562C27.1098 21.5387 26.8146 22.2593 26.2243 22.8235V22.8179Z" fill="black"/>
</svg>
