<svg width="1582" height="525" viewBox="0 0 1582 525" fill="none" xmlns="http://www.w3.org/2000/svg">
<g clip-path="url(#clip0_781_480)">
<path d="M1574.97 4V517H1403.25C1402.86 511.814 1402.82 506.726 1402.76 501.54L1402.53 484.242C1401.68 461.036 1402.92 437.928 1403.64 414.656C1406.43 368.309 1411.85 321.798 1421.5 275.845C1424.05 264.422 1426.29 252.836 1429.5 241.512L1433.96 224.41L1439.12 207.441C1442.14 197.889 1445.32 188.37 1448.76 178.917C1450.31 174.65 1444.2 171.893 1441.84 175.832C1436.66 184.563 1431.77 193.556 1426.94 202.583L1418.54 218.666L1410.8 235.045C1405.51 245.943 1400.99 257.201 1396.26 268.394C1377.82 313.264 1363.32 359.808 1351.5 407.271C1346.28 431.035 1340.51 454.931 1336.87 479.122L1333.78 497.273C1332.67 503.28 1331.62 509.385 1331.06 515.424L1330.83 517H1223.69C1223.3 511.814 1223.26 506.726 1223.17 501.54L1222.94 484.242C1222.12 461.036 1223.33 437.928 1224.08 414.656C1226.81 368.309 1232.29 321.798 1241.94 275.845C1244.43 264.422 1246.73 252.836 1249.91 241.512L1254.44 224.41L1259.59 207.441C1262.61 197.889 1265.79 188.37 1269.24 178.917C1270.78 174.65 1264.61 171.893 1262.31 175.832C1257.13 184.563 1252.17 193.556 1247.42 202.583L1239.02 218.666L1231.27 235.045C1225.96 245.943 1221.46 257.201 1216.73 268.394C1198.26 313.264 1183.76 359.808 1171.98 407.271C1166.69 431.035 1160.98 454.931 1157.34 479.122L1154.22 497.273C1153.17 503.28 1152.12 509.385 1151.5 515.424L1151.27 517H1004C1004.72 512.339 1005.48 507.678 1006.2 503.017C1008.07 491.398 1009.94 479.778 1012.07 468.159L1019.23 434.35L1022.87 417.38C1024.08 411.768 1025.69 406.22 1027.1 400.673L1035.93 367.095C1037.31 361.482 1039.11 356 1040.88 350.42L1046.1 333.91C1052.66 311.557 1061.2 289.992 1069.23 268.099C1086.53 224.87 1106.45 182.265 1130.14 141.498C1136.14 131.356 1141.98 121.049 1148.61 111.3L1158.33 96.3L1168.56 81.7919C1174.47 73.586 1180.47 65.5114 1186.78 57.5681C1189.6 53.9575 1184.61 49.4935 1181.2 52.5133C1173.45 59.2749 1165.94 66.2992 1158.52 73.4219L1145.46 86.2559L1132.93 99.5167C1124.43 108.215 1116.59 117.537 1108.58 126.76C1076.75 163.785 1048.27 203.764 1022.01 245.253C1016.73 254.05 1011.45 262.847 1006.23 271.709V128.139C1030.19 104.407 1061.46 81.4965 1099.82 59.2093C1130.79 41.1891 1159.11 27.6658 1184.81 18.6065C1191.21 16.3417 1197.37 14.3394 1203.38 12.6654C1214.27 9.54719 1224.64 7.34801 1234.45 6.03506V172.024L1235.47 170.055C1253.42 137.92 1278.26 106.475 1309.96 75.5883C1336.6 49.6905 1363.55 28.7162 1390.78 12.6654C1395.93 9.58001 1401.12 6.72436 1406.24 4.03282V172.057C1447.19 108.51 1499.07 55.3689 1561.91 12.6983C1566.24 9.77695 1570.6 6.88848 1575 4.06565L1574.97 4Z" fill="black"/>
<path d="M945 366.962C945 491.873 831.706 526 746.735 526C624.7 526 523.399 490.494 521 365.024H634.13C643.363 422.044 688.215 439.386 741.74 439.386C795.266 439.386 835.879 421.058 835.879 374.451C835.879 324.46 784.193 311.978 723.405 300.318C633.407 282.811 533.42 267.013 533.42 152.907C533.42 44.681 629.267 3 727.546 3C868.967 3 936.424 61.9249 936.654 160.757H831.64C824.345 105.281 789.647 86.2964 727.546 86.2964C670.077 86.2964 639.256 107.942 639.256 142.101C639.256 188.709 686.703 199.548 748.345 212.85C848.365 232.853 944.967 252.823 944.967 366.962H945Z" fill="black"/>
<path d="M467.896 311.746C463.793 302.839 458.411 294.918 451.683 287.951C444.956 280.983 437.374 275.198 429.006 270.63C420.604 266.061 412.071 262.577 403.44 260.178C420.243 251.041 432.353 239.603 439.803 225.898C447.253 212.192 450.961 200.787 450.961 191.618C450.961 160.361 449.747 133.542 447.351 111.192C444.956 88.8428 437.637 70.2073 425.363 55.2857C413.121 40.397 394.021 29.4523 368.094 22.4517C342.167 15.4839 305.673 12 258.611 12H0V517H281.65C329.664 517 366.781 512.793 392.938 504.379C419.094 495.965 438.195 484.067 450.206 468.653C462.218 453.271 469.176 434.734 471.112 413.108C473.015 391.481 474 367.653 474 341.688C474 330.645 471.965 320.653 467.863 311.746H467.896ZM28.0271 138.242H321.295C332.322 138.242 343.972 139.096 356.247 140.773C368.488 142.449 380.007 145.472 390.837 149.778C398.78 152.966 405.639 156.976 411.48 161.84C425.33 176.17 436.981 200.919 413.548 225.569C390.05 250.252 348.436 250.482 348.436 250.482H28.0271V138.242ZM436.751 365.056C432.845 368.573 428.284 371.893 422.836 374.851C403.637 385.434 377.448 390.725 344.301 390.725H28.0271V279.076H374.33C392.183 279.076 413.909 284.598 436.324 304.417C458.51 324.005 450.042 351.088 436.784 365.056H436.751Z" fill="black"/>
</g>
<defs>
<clipPath id="clip0_781_480">
<rect width="1582" height="525" fill="white"/>
</clipPath>
</defs>
</svg>
