<?xml version="1.0" encoding="UTF-8"?>
<svg width="76px" height="68px" viewBox="0 0 76 68" version="1.1" xmlns="http://www.w3.org/2000/svg" xmlns:xlink="http://www.w3.org/1999/xlink">
    <title>m1</title>
    <g id="Page-1" stroke="none" stroke-width="1" fill="none" fill-rule="evenodd">
        <g id="m1" fill="#000000" fill-rule="nonzero">
            <path d="M25.13,34.37 L8.15,5.57 C7.74,5.03 7.47,4.62 7.2,4.35 C6.79,4.08 6.38,3.94 5.84,3.94 C5.16,3.94 4.75,4.21 4.35,4.76 C3.94,5.3 3.81,5.98 4.08,6.66 L27.45,64.13 C27.72,64.81 27.86,65.35 27.86,65.76 C27.86,66.44 27.59,66.98 27.18,67.39 C26.77,67.8 26.23,67.93 25.82,67.93 L2.17,67.93 C1.49,67.93 0.95,67.66 0.54,67.25 C0.13,66.84 0,66.43 0,65.76 L0,5.84 C0,4.07 0.68,2.72 1.9,1.63 C3.12,0.54 4.48,0 5.7,0 C6.79,0 7.74,0.14 8.69,0.54 C9.51,0.95 10.46,1.76 11.68,2.71 L35.18,21.73 C36.27,22.68 37.08,23.09 37.63,23.09 C38.18,23.09 38.99,22.68 40.08,21.73 L63.58,2.72 C64.8,1.77 65.75,0.95 66.7,0.55 C67.52,0.14 68.47,0.01 69.55,0.01 C70.77,0.01 72.13,0.55 73.35,1.64 C74.57,2.73 75.25,4.09 75.25,5.85 L75.25,65.77 C75.25,66.45 75.11,66.86 74.71,67.26 C74.3,67.67 73.76,67.94 73.08,67.94 L49.44,67.94 C49.03,67.94 48.49,67.8 48.08,67.4 C47.67,66.99 47.4,66.45 47.4,65.77 C47.4,65.36 47.54,64.82 47.81,64.14 L71.19,6.66 C71.29,6.41 71.33,6.25 71.33,5.98 C71.33,5.3 71.19,4.89 70.79,4.49 C70.38,4.08 69.97,3.95 69.43,3.95 C68.89,3.95 68.48,4.09 68.21,4.36 C67.8,4.63 67.53,5.04 67.12,5.58 L50.14,34.38 C48.37,37.37 46.74,39.68 44.98,41.17 C43.21,42.66 40.77,43.48 37.64,43.48 C34.51,43.48 32.21,42.66 30.44,41.17 C28.67,39.68 26.91,37.37 25.14,34.38 L25.13,34.37 Z" id="Path"></path>
        </g>
    </g>
</svg>