<?xml version="1.0" encoding="UTF-8"?>
<svg id="Layer_2" data-name="Layer 2" xmlns="http://www.w3.org/2000/svg" viewBox="0 0 75.27 67.93">
  <defs>
    <style>
      .cls-1 {
        fill: #000;
        stroke-width: 0px;
      }
    </style>
  </defs>
  <g id="sonrisas">
    <path class="cls-1" d="M25.13,34.37L8.15,5.57c-.41-.54-.68-.95-.95-1.22-.41-.27-.82-.41-1.36-.41-.68,0-1.09.27-1.49.82-.41.54-.54,1.22-.27,1.9l23.37,57.47c.27.68.41,1.22.41,1.63,0,.68-.27,1.22-.68,1.63-.41.41-.95.54-1.36.54H2.17c-.68,0-1.22-.27-1.63-.68-.41-.41-.54-.82-.54-1.49V5.84c0-1.77.68-3.12,1.9-4.21,1.22-1.09,2.58-1.63,3.8-1.63,1.09,0,2.04.14,2.99.54.82.41,1.77,1.22,2.99,2.17l23.5,19.02c1.09.95,1.9,1.36,2.45,1.36s1.36-.41,2.45-1.36L63.58,2.72c1.22-.95,2.17-1.77,3.12-2.17.82-.41,1.77-.54,2.85-.54,1.22,0,2.58.54,3.8,1.63,1.22,1.09,1.9,2.45,1.9,4.21v59.92c0,.68-.14,1.09-.54,1.49-.41.41-.95.68-1.63.68h-23.64c-.41,0-.95-.14-1.36-.54-.41-.41-.68-.95-.68-1.63,0-.41.14-.95.41-1.63L71.19,6.66c.1-.25.14-.41.14-.68,0-.68-.14-1.09-.54-1.49-.41-.41-.82-.54-1.36-.54s-.95.14-1.22.41c-.41.27-.68.68-1.09,1.22l-16.98,28.8c-1.77,2.99-3.4,5.3-5.16,6.79-1.77,1.49-4.21,2.31-7.34,2.31s-5.43-.82-7.2-2.31c-1.77-1.49-3.53-3.8-5.3-6.79Z"/>
  </g>
</svg>