<?xml version="1.0" encoding="UTF-8"?>
<svg width="76px" height="68px" viewBox="0 0 76 68" version="1.1" xmlns="http://www.w3.org/2000/svg" xmlns:xlink="http://www.w3.org/1999/xlink">
    <title>m3</title>
    <g id="Page-1" stroke="none" stroke-width="1" fill="none" fill-rule="evenodd">
        <g id="m3" fill="#000000" fill-rule="nonzero">
            <path d="M76,0 L76,67.9799676 L53.1476972,67.9799676 C53.097406,67.2888496 53.0873478,66.617764 53.0873478,65.926646 L53.0571731,63.6329356 C52.9465326,60.5579614 53.1074643,57.4930034 53.2080466,54.408013 C53.5802012,48.2680807 54.3043939,42.1081161 55.5817893,36.0182648 C55.9237692,34.5058182 56.2255161,32.9733392 56.6479619,31.4709088 L57.2413976,29.207247 L57.9253573,26.9636176 C58.3276866,25.7015761 58.7501323,24.4395345 59.212811,23.1875092 C59.4139756,22.6165857 58.6093171,22.2560024 58.2874537,22.7768449 C57.5934357,23.9387244 56.9497088,25.1206363 56.305982,26.3225806 L55.1895183,28.4560318 L54.1635786,30.6295478 C53.4595024,32.071881 52.8560085,33.5642952 52.2223399,35.0466932 C49.7681313,40.9963176 47.8369508,47.1562822 46.2678666,53.4464575 C45.5738486,56.6015613 44.7993647,59.7566652 44.3165696,62.9718663 L43.9041821,65.3757549 C43.7533086,66.1670349 43.6124934,66.9783473 43.5420858,67.7796435 L43.5119111,67.9899838 L29.2493383,67.9899838 C29.1990471,67.2988658 29.1889889,66.6277802 29.1789307,65.9366622 L29.148756,63.6429518 C29.0381154,60.5679776 29.1990471,57.5030196 29.2996294,54.4180292 C29.6617258,48.2780969 30.3959767,42.1181323 31.6733722,36.028281 C32.0052938,34.5158344 32.317099,32.9833554 32.7294865,31.480925 L33.3329804,29.2172632 L34.0169402,26.9736338 C34.4192695,25.7115923 34.8417152,24.4495507 35.3043939,23.1975254 C35.5055585,22.6266019 34.6908417,22.2660186 34.3790365,22.7868611 C33.6850185,23.9487406 33.0312335,25.1306525 32.3975648,26.3325968 L31.2811011,28.466048 L30.2551615,30.639564 C29.541027,32.0818972 28.9475913,33.5743114 28.3139227,35.0567094 C25.8496559,41.0063338 23.9184754,47.1662984 22.3594494,53.4564737 C21.6553732,56.6115776 20.8909476,59.7666814 20.4081525,62.9818825 L19.995765,65.3857711 C19.8549497,66.1770511 19.7141345,66.9883635 19.6336686,67.7896597 L19.6034939,68 L0,68 C0.100582319,67.3789954 0.201164637,66.7680071 0.291688724,66.1470025 C0.543144521,64.6045073 0.794600318,63.0620121 1.07623081,61.5295331 L2.03176284,57.0522905 L2.51455797,54.8086611 C2.67548968,54.0674621 2.88671255,53.3362793 3.07781895,52.5950803 L4.25463208,48.1478863 C4.43568025,47.4066873 4.67707782,46.6755045 4.90841715,45.9343055 L5.60243515,43.7407571 C6.47750132,40.7759611 7.61408152,37.9213433 8.6802541,35.0166446 C10.9835892,29.2873766 13.6289042,23.6382383 16.787189,18.2395051 C17.5817893,16.8973339 18.3663314,15.5251142 19.2514558,14.233024 L20.5389095,12.2498159 L21.8967708,10.326705 C22.6813129,9.23493887 23.4859714,8.17322139 24.3208047,7.12152011 C24.6929592,6.64074238 24.0291159,6.04978642 23.5764955,6.45043453 C22.5505558,7.35189277 21.5447327,8.27338341 20.5590259,9.21490647 L18.8189518,10.9176609 L17.1492853,12.6704964 C16.0227634,13.8223597 14.9767073,15.0543526 13.9105347,16.2763294 C9.67601906,21.1842687 5.88406564,26.4828399 2.38380095,31.9817352 C1.67972472,33.1436147 0.975648491,34.3155104 0.281630492,35.4874061 L0.281630492,16.4666372 C3.47008999,13.3215496 7.63419799,10.2866402 12.7437798,7.33186036 C16.8676548,4.94800412 20.6394918,3.15510384 24.0592906,1.95315952 C24.9142403,1.65267344 25.7289571,1.38223597 26.5336157,1.16187951 C27.9820011,0.751215201 29.3700371,0.450729121 30.667549,0.280453675 L30.667549,22.2760348 L30.798306,22.0156135 C33.1921652,17.7587274 36.4912652,13.591987 40.7157226,9.49536014 C44.2662785,6.05980262 47.847009,3.28531448 51.4679725,1.16187951 C52.1519322,0.751215201 52.8459502,0.370599499 53.52991,0.0200324054 L53.52991,22.286051 C58.9814717,13.8624245 65.8814187,6.82103403 74.2498677,1.17189571 C74.8231869,0.781263809 75.4065643,0.400648107 75.9899418,0.030048608 L76,0 Z" id="Path"></path>
        </g>
    </g>
</svg>