<?xml version="1.0" encoding="UTF-8"?>
<svg id="Layer_2" data-name="Layer 2" xmlns="http://www.w3.org/2000/svg" viewBox="0 0 75.56 67.87">
  <defs>
    <style>
      .cls-1 {
        fill: #000;
        stroke-width: 0px;
      }
    </style>
  </defs>
  <g id="sonrisas">
    <path class="cls-1" d="M75.56,0v67.87h-22.72c-.05-.69-.06-1.36-.06-2.05l-.03-2.29c-.11-3.07.05-6.13.15-9.21.37-6.13,1.09-12.28,2.36-18.36.34-1.51.64-3.04,1.06-4.54l.59-2.26.68-2.24c.4-1.26.82-2.52,1.28-3.77.2-.57-.6-.93-.92-.41-.69,1.16-1.33,2.34-1.97,3.54l-1.11,2.13-1.02,2.17c-.7,1.44-1.3,2.93-1.93,4.41-2.44,5.94-4.36,12.09-5.92,18.37-.69,3.15-1.46,6.3-1.94,9.51l-.41,2.4c-.15.79-.29,1.6-.36,2.4l-.03.21h-14.18c-.05-.69-.06-1.36-.07-2.05l-.03-2.29c-.11-3.07.05-6.13.15-9.21.36-6.13,1.09-12.28,2.36-18.36.33-1.51.64-3.04,1.05-4.54l.6-2.26.68-2.24c.4-1.26.82-2.52,1.28-3.77.2-.57-.61-.93-.92-.41-.69,1.16-1.34,2.34-1.97,3.54l-1.11,2.13-1.02,2.17c-.71,1.44-1.3,2.93-1.93,4.41-2.45,5.94-4.37,12.09-5.92,18.37-.7,3.15-1.46,6.3-1.94,9.51l-.41,2.4c-.14.79-.28,1.6-.36,2.4l-.03.21H0c.1-.62.2-1.23.29-1.85.25-1.54.5-3.08.78-4.61l.95-4.47.48-2.24c.16-.74.37-1.47.56-2.21l1.17-4.44c.18-.74.42-1.47.65-2.21l.69-2.19c.87-2.96,2-5.81,3.06-8.71,2.29-5.72,4.92-11.36,8.06-16.75.79-1.34,1.57-2.71,2.45-4l1.28-1.98,1.35-1.92c.78-1.09,1.58-2.15,2.41-3.2.37-.48-.29-1.07-.74-.67-1.02.9-2.02,1.82-3,2.76l-1.73,1.7-1.66,1.75c-1.12,1.15-2.16,2.38-3.22,3.6-4.21,4.9-7.98,10.19-11.46,15.68-.7,1.16-1.4,2.33-2.09,3.5v-18.99c3.17-3.14,7.31-6.17,12.39-9.12,4.1-2.38,7.85-4.17,11.25-5.37.85-.3,1.66-.57,2.46-.79,1.44-.41,2.82-.71,4.11-.88v21.96l.13-.26c2.38-4.25,5.66-8.41,9.86-12.5,3.53-3.43,7.09-6.2,10.69-8.32.68-.41,1.37-.79,2.05-1.14v22.23c5.42-8.41,12.28-15.44,20.6-21.08.57-.39,1.15-.77,1.73-1.14Z"/>
  </g>
</svg>