<svg width="320" height="400" viewBox="0 0 320 400" fill="none" xmlns="http://www.w3.org/2000/svg">
<g clip-path="url(#clip0_781_517)">
<path d="M320 0H0V400H320V0Z" fill="#0EA94B"/>
<path d="M242.033 125.591C233.313 115.39 222.267 107.162 208.895 100.919C195.514 94.6815 179.808 91.4608 161.781 91.2593C146.72 91.2593 132.596 93.6919 119.419 98.5422C106.243 103.401 94.6994 110.536 84.7912 119.944C74.8831 129.357 67.0579 140.898 61.3068 154.572C55.5616 168.246 52.6875 183.905 52.6875 201.541C52.6875 215.209 54.7201 228.492 58.7823 241.372C62.8386 254.252 69.2327 265.698 77.9556 275.704C86.6756 285.71 97.8193 293.787 111.396 299.926C122.504 304.951 135.612 307.81 150.507 308.723V248.516C150.507 245.837 148.231 243.707 145.565 243.929C130.61 245.182 86.1779 243.363 74.7794 179.896C74.2994 177.233 76.1779 174.708 78.8742 174.462C93.366 173.138 136.222 172.536 153.76 208.8C155.594 212.596 161.167 211.973 162.296 207.914C167.932 187.659 185.565 158.175 240.11 151.647C242.969 151.307 245.467 153.615 245.286 156.489C244.145 174.631 235.648 232.764 173.802 240.987C171.538 241.289 169.864 243.25 169.864 245.532V308.741C184.536 307.852 197.52 304.948 208.593 299.778C221.973 293.535 233.013 285.363 241.736 275.253C250.456 265.15 256.895 253.606 261.058 240.625C265.221 227.653 267.301 214.421 267.301 200.942C267.49 187.076 265.514 173.597 261.354 160.519C257.191 147.44 250.753 135.799 242.033 125.588V125.591Z" fill="white"/>
</g>
<defs>
<clipPath id="clip0_781_517">
<rect width="320" height="400" fill="white"/>
</clipPath>
</defs>
</svg>
