<?xml version="1.0" encoding="UTF-8"?>
<svg id="Layer_2" data-name="Layer 2" xmlns="http://www.w3.org/2000/svg" viewBox="0 0 12.14 12.47">
  <defs>
    <style>
      .cls-1 {
        fill: #fff;
        stroke-width: 0px;
      }
    </style>
  </defs>
  <g id="sonrisas">
    <path class="cls-1" d="M0,6.23C0,2.89,1.96,0,6.07,0s6.07,2.89,6.07,6.23-1.96,6.23-6.07,6.23S0,9.57,0,6.23ZM11,6.23c0-3.79-1.96-5.17-4.93-5.17S1.14,2.44,1.14,6.23s1.96,5.13,4.93,5.13,4.93-1.39,4.93-5.13ZM3.87,3.3h2.28c1.59,0,2.36.53,2.36,1.79,0,1.02-.69,1.55-1.59,1.55v.08c.49.16.69.41,1.06,1.06l.73,1.22h-1.14l-.61-1.06c-.45-.81-.65-1.1-1.55-1.1h-.61v2.16h-.94V3.3ZM6.4,6.03c.9,0,1.14-.24,1.14-.86,0-.81-.24-.98-1.14-.98h-1.59v1.83h1.59Z"/>
  </g>
</svg>