<?xml version="1.0" encoding="UTF-8"?>
<svg id="Layer_2" data-name="Layer 2" xmlns="http://www.w3.org/2000/svg" viewBox="0 0 56.03 69.14">
  <defs>
    <style>
      .cls-1 {
        fill: #000;
        stroke-width: 0px;
      }
    </style>
  </defs>
  <g id="sonrisas">
    <path class="cls-1" d="M56.03,48.12c0,16.52-14.97,21.03-26.2,21.03-16.13,0-29.52-4.7-29.83-21.28h14.95c1.22,7.54,7.15,9.83,14.22,9.83s12.44-2.42,12.44-8.59c0-6.61-6.83-8.26-14.86-9.8C14.86,37,1.65,34.91,1.65,19.82,1.65,5.51,14.31,0,27.3,0c18.69,0,27.6,7.79,27.64,20.86h-13.88c-.97-7.33-5.55-9.84-13.76-9.84-7.59,0-11.67,2.86-11.67,7.38,0,6.16,6.27,7.59,14.42,9.35,13.22,2.64,25.98,5.29,25.98,20.37Z"/>
  </g>
</svg>