<svg width="863" height="288" viewBox="0 0 863 288" fill="none" xmlns="http://www.w3.org/2000/svg">
<path d="M22.0724 5.04885H229.903C236.52 5.04885 242.07 7.27377 247.023 12.237C252.018 17.2431 254.195 22.7626 254.195 28.8383C254.195 33.2882 253.085 37.6952 250.865 42.145C248.09 46.5949 244.248 49.8895 238.698 52.1144L133.117 93.6604C128.677 95.3291 126.5 97.554 126.5 101.405C126.5 105.855 128.72 108.593 133.117 110.262L209.41 137.389C225.975 143.464 238.698 152.364 246.98 164.515C255.263 176.71 259.703 190.016 259.703 204.949C259.703 218.812 256.928 230.963 250.865 242.601C244.803 254.239 236.478 263.653 224.908 270.841C213.295 278.029 200.018 281.923 184.563 281.923H22.6274C16.0099 281.923 10.4598 279.698 6.61744 274.734C2.17735 270.285 0 265.321 0 259.759V27.2124C0 21.1367 2.22005 16.1306 7.17245 11.6808C11.6125 7.23098 16.565 5.04885 22.1151 5.04885H22.0724ZM129.83 263.182C132.605 266.519 135.337 268.188 138.112 268.188C140.332 268.188 141.998 267.076 143.62 265.407C145.285 263.738 145.84 262.069 145.84 259.887C145.84 257.106 145.285 253.812 144.175 249.918L113.222 119.204C111.557 112.016 110.447 105.897 110.447 101.49C110.447 97.5968 111.557 93.1898 114.332 88.7399C117.107 84.8463 121.505 81.5517 127.61 78.7706L231.525 37.7808C235.965 36.1121 238.143 33.331 238.143 28.9239C238.143 26.1428 237.033 23.9179 234.812 22.2919C232.037 20.6233 229.305 20.6233 225.975 21.7357L23.7374 93.147C18.7423 94.8157 16.0099 97.5968 16.0099 101.448C16.0099 103.116 17.12 105.897 18.785 108.636L129.873 263.182H129.83Z" fill="black"/>
<path d="M517.954 199.772C517.954 268.316 455.963 287.057 409.428 287.057C342.613 287.057 287.154 267.546 285.874 198.702H347.821C352.859 229.979 377.45 239.521 406.738 239.521C436.025 239.521 458.269 229.466 458.269 203.879C458.269 176.453 429.963 169.607 396.705 163.189C347.437 153.605 292.704 144.919 292.704 82.2791C292.704 22.891 345.174 0 398.968 0C476.371 0 513.3 32.3469 513.428 86.5578H455.963C451.95 56.1363 432.994 45.6964 398.968 45.6964C367.503 45.6964 350.639 57.5483 350.639 76.3317C350.639 101.918 376.597 107.866 410.367 115.182C465.1 126.136 517.996 137.132 517.996 199.772H517.954Z" fill="black"/>
<path d="M863 5.04885V282.008H846.52V52.0716L844.13 58.3613L833.841 84.9747L757.719 282.008H687.488V52.0716L598.729 282.008H521.753L638.903 5.04885H704.053V243.628L797.85 5.04885H863Z" fill="black"/>
</svg>
