<svg xmlns="http://www.w3.org/2000/svg" width="138" height="33" fill="none" viewBox="0 0 138 33"><path fill="#000" d="M18.656 3.488a9.6 9.6 0 0 0-3.268-2.5 10.9 10.9 0 0 0-4.662-.987 11.6 11.6 0 0 0-4.17.738 9.8 9.8 0 0 0-3.393 2.168A10.3 10.3 0 0 0 .85 6.394a12.6 12.6 0 0 0-.847 4.794c-.005 1.38.197 2.752.599 4.069a9.6 9.6 0 0 0 1.957 3.558 9.2 9.2 0 0 0 3.23 2.381c1.22.535 2.524.837 3.849.89v-6.132a.47.47 0 0 0-.142-.344.44.44 0 0 0-.343-.121c-1.474.122-5.848-.058-6.97-6.498a.48.48 0 0 1 .07-.385.46.46 0 0 1 .33-.196c1.428-.133 5.644-.192 7.377 3.487a.46.46 0 0 0 .187.2.44.44 0 0 0 .512-.057.47.47 0 0 0 .142-.236c.564-2.051 2.291-5.044 7.664-5.707a.44.44 0 0 1 .366.121.47.47 0 0 1 .142.367c-.107 1.843-.948 7.742-7.038 8.573a.45.45 0 0 0-.28.157.47.47 0 0 0-.11.308v6.462a10.2 10.2 0 0 0 3.816-.912 9.6 9.6 0 0 0 3.268-2.51 10.1 10.1 0 0 0 1.902-3.488c.406-1.302.613-2.66.615-4.027a13.2 13.2 0 0 0-.564-4.069 10.3 10.3 0 0 0-1.925-3.591M58.137.658A1.15 1.15 0 0 0 56.5.82l-.886 1.07a1.2 1.2 0 0 1-.583.397c-.228.07-.47.07-.698-.002l-.361-.116a14 14 0 0 0-1.332-.331q-.675-.132-1.36-.192c-.447-.04-.802-.058-1.084-.058-1.281.001-2.553.211-3.77.621a10.5 10.5 0 0 0-3.387 1.854 9.1 9.1 0 0 0-2.549 3.304 9.4 9.4 0 0 0-.837 4.13q0 4.533 2.675 7.084t7.823 2.557c1.744 0 2.985.355 3.719 1.075.342.31.616.691.804 1.118s.288.89.29 1.358c.021.574-.13 1.14-.434 1.622a3.1 3.1 0 0 1-1.129 1.01 5.5 5.5 0 0 1-1.591.53q-.886.158-1.784.157a6.8 6.8 0 0 1-1.873-.256 4.9 4.9 0 0 1-1.575-.761 3.76 3.76 0 0 1-1.095-1.308 4 4 0 0 1-.327-.953 1.3 1.3 0 0 0-.45-.704 1.24 1.24 0 0 0-.775-.273h-2.907a1.1 1.1 0 0 0-.87.367 1.17 1.17 0 0 0-.298.918c.085.835.275 1.656.564 2.44a7.5 7.5 0 0 0 1.897 2.907 8.6 8.6 0 0 0 3.166 1.877c1.434.468 2.932.692 4.436.662a16 16 0 0 0 3.9-.47 10.2 10.2 0 0 0 3.387-1.46 7.7 7.7 0 0 0 2.348-2.556 7.63 7.63 0 0 0 .84-3.824 12 12 0 0 0-.078-1.192 5.4 5.4 0 0 0-.435-1.563 7.1 7.1 0 0 0-1.129-1.744 6 6 0 0 0-.784-.784 1.2 1.2 0 0 1-.302-.41 1.2 1.2 0 0 1 .019-1q.115-.236.316-.398a7.1 7.1 0 0 0 1.694-1.97 8.4 8.4 0 0 0 .965-4.178 9.4 9.4 0 0 0-.418-2.656 7.5 7.5 0 0 0-1.162-2.22 1.246 1.246 0 0 1 .062-1.552l.914-1.023a1.2 1.2 0 0 0 .302-.9 1.23 1.23 0 0 0-.426-.844zM53.876 15.11a5.38 5.38 0 0 1-3.714 1.285 5.7 5.7 0 0 1-2.258-.407 4.7 4.7 0 0 1-1.575-1.075 4.1 4.1 0 0 1-.942-1.546 5.8 5.8 0 0 1-.305-1.877c0-.625.11-1.245.322-1.83.208-.59.53-1.127.948-1.582a4.75 4.75 0 0 1 1.592-1.104 5.5 5.5 0 0 1 2.257-.43 4.95 4.95 0 0 1 2.017.307 5.1 5.1 0 0 1 1.737 1.1A4.8 4.8 0 0 1 54.99 9.58c.234.61.344 1.261.325 1.917a4.7 4.7 0 0 1-.324 1.974 4.6 4.6 0 0 1-1.115 1.64M112.088 16.57h-1.129a.75.75 0 0 1-.55-.231.82.82 0 0 1-.229-.565v-4.592a15.5 15.5 0 0 0-.53-4.37 7.25 7.25 0 0 0-1.552-2.906 6.06 6.06 0 0 0-2.551-1.621 10.7 10.7 0 0 0-3.387-.506 9 9 0 0 0-2.54.43 5.8 5.8 0 0 0-1.806.936.76.76 0 0 1-.738.104.8.8 0 0 1-.314-.23.8.8 0 0 1-.167-.357.8.8 0 0 0-.266-.467.76.76 0 0 0-.496-.184h-5.875a.77.77 0 0 0-.551.235.81.81 0 0 0-.228.567v3.121c0 .213.082.417.228.567s.344.235.55.235h1.062a.75.75 0 0 1 .555.242.8.8 0 0 1 .218.578v8.218a.82.82 0 0 1-.227.563.77.77 0 0 1-.546.233h-1.214a.77.77 0 0 0-.55.235.81.81 0 0 0-.229.567v3.237c0 .213.082.417.228.567s.345.235.551.235h9.132a.77.77 0 0 0 .551-.235.81.81 0 0 0 .228-.567v-3.237a.81.81 0 0 0-.228-.567.77.77 0 0 0-.55-.235h-1.175a.76.76 0 0 1-.55-.231.8.8 0 0 1-.228-.565v-4.196a5 5 0 0 1 1.128-3.487c.398-.424.881-.754 1.415-.967a3.85 3.85 0 0 1 1.678-.266 4.34 4.34 0 0 1 1.987.39c.46.226.85.578 1.129 1.017.257.427.419.907.474 1.406q.094.776.096 1.558v4.55a.8.8 0 0 1-.481.738.8.8 0 0 1-.298.059h-.531a.75.75 0 0 0-.548.235.8.8 0 0 0-.225.567v3.237a.806.806 0 0 0 .476.74q.142.062.297.062h8.467a.76.76 0 0 0 .589-.216.812.812 0 0 0 .246-.593v-3.236a.83.83 0 0 0-.234-.573.77.77 0 0 0-.562-.23M85.307 16.738h-1.208a.66.66 0 0 1-.475-.202.7.7 0 0 1-.197-.49v-8.45a.7.7 0 0 1 .198-.487.66.66 0 0 1 .474-.198h1.056a.65.65 0 0 0 .473-.203.7.7 0 0 0 .193-.489V2.732a.7.7 0 0 0-.193-.489.67.67 0 0 0-.473-.203h-5.887a.66.66 0 0 0-.446.175.7.7 0 0 0-.22.436.7.7 0 0 1-.133.338.67.67 0 0 1-.282.22.65.65 0 0 1-.674-.11 5.2 5.2 0 0 0-2.089-1.093 14.8 14.8 0 0 0-3.646-.43h-.05a8.9 8.9 0 0 0-3.8 1.034 9.6 9.6 0 0 0-2.866 2.325 11.2 11.2 0 0 0-2.41 5.91v.082a13.7 13.7 0 0 0 .62 5.346 8.8 8.8 0 0 0 1.824 3.115 7.8 7.8 0 0 0 2.822 1.936 9.5 9.5 0 0 0 3.651.668c1.197 0 2.387-.177 3.534-.529a7.9 7.9 0 0 0 3.036-1.871.19.19 0 0 1 .136-.06.18.18 0 0 1 .135.06q.043.028.062.075a.4.4 0 0 1 0 .082v.14a1.62 1.62 0 0 0 .44 1.146c.144.15.316.27.507.35.19.081.394.121.6.119h5.288a.66.66 0 0 0 .47-.201.7.7 0 0 0 .196-.485v-3.382a.7.7 0 0 0-.191-.493.67.67 0 0 0-.475-.205m-6.936-4.736c.003.703-.127 1.4-.384 2.051a5 5 0 0 1-1.061 1.668c-.481.486-1.059.86-1.694 1.093a6 6 0 0 1-2.257.395 4.8 4.8 0 0 1-2.015-.327 4.9 4.9 0 0 1-1.71-1.143 5.15 5.15 0 0 1-1.047-1.71 5.3 5.3 0 0 1-.325-1.992c-.005-.703.123-1.4.378-2.052a4.9 4.9 0 0 1 1.084-1.668 5 5 0 0 1 1.693-1.092 5.8 5.8 0 0 1 2.168-.396q2.591 0 3.877 1.43a5.2 5.2 0 0 1 1.01 1.738 5.3 5.3 0 0 1 .283 2.005M39.228 2.936a6.4 6.4 0 0 0-1.975-1 9 9 0 0 0-2.636-.43 7.5 7.5 0 0 0-2.822.546A6 6 0 0 0 30.237 3a.75.75 0 0 1-.71.131.76.76 0 0 1-.314-.204.8.8 0 0 1-.184-.333.8.8 0 0 0-.274-.42.75.75 0 0 0-.465-.162h-3.172a.75.75 0 0 0-.545.234.8.8 0 0 0-.222.563v17.824c0 .21.08.41.224.56.144.147.34.23.543.23h3.742a.76.76 0 0 0 .543-.23.8.8 0 0 0 .225-.56v-9.205a5.7 5.7 0 0 1 .361-2.168 4.1 4.1 0 0 1 .926-1.424c.373-.36.82-.628 1.31-.785a5 5 0 0 1 1.54-.232c.635.002 1.266.1 1.874.29q.549.162 1.05.448a.736.736 0 0 0 1.032-.314l1.598-3.01c.321-.622.22-1.058-.09-1.296M137.328 16.738h-1.208a.65.65 0 0 1-.469-.205.7.7 0 0 1-.191-.487v-8.45c0-.182.07-.356.195-.485a.66.66 0 0 1 .471-.2h1.027a.66.66 0 0 0 .475-.203.7.7 0 0 0 .197-.49V2.733a.7.7 0 0 0-.201-.482.66.66 0 0 0-.471-.198h-5.858a.66.66 0 0 0-.446.175.7.7 0 0 0-.22.435.7.7 0 0 1-.133.338.649.649 0 0 1-.957.11 5.25 5.25 0 0 0-2.094-1.093 14.8 14.8 0 0 0-3.646-.43h-.045a8.9 8.9 0 0 0-3.798 1.034 9.7 9.7 0 0 0-2.873 2.325 11.2 11.2 0 0 0-2.393 5.876v.08a13.7 13.7 0 0 0 .609 5.371 8.8 8.8 0 0 0 1.823 3.115 7.7 7.7 0 0 0 2.822 1.935 9.5 9.5 0 0 0 3.663.663 12 12 0 0 0 3.539-.529 7.9 7.9 0 0 0 3.037-1.871.182.182 0 0 1 .271 0 .16.16 0 0 1 .056.075 1 1 0 0 1 0 .082v.139a1.6 1.6 0 0 0 .43 1.146c.143.151.314.271.503.353s.392.123.597.122h5.288a.65.65 0 0 0 .475-.198.7.7 0 0 0 .197-.487v-3.383a.69.69 0 0 0-.414-.644.7.7 0 0 0-.258-.053M130.38 12c.006.703-.123 1.4-.378 2.052a5 5 0 0 1-1.067 1.668 4.56 4.56 0 0 1-1.693 1.093 6 6 0 0 1-2.257.395 4.8 4.8 0 0 1-2.014-.329 4.9 4.9 0 0 1-1.712-1.142 5.2 5.2 0 0 1-1.042-1.71 5.3 5.3 0 0 1-.323-1.992c-.006-.702.123-1.4.378-2.051a4.9 4.9 0 0 1 1.083-1.668 5 5 0 0 1 1.694-1.093 5.8 5.8 0 0 1 2.167-.395q2.58 0 3.877 1.43a5.2 5.2 0 0 1 1.011 1.737c.221.643.315 1.325.276 2.005"/></svg>