<svg width="137" height="122" viewBox="0 0 137 122" fill="none" xmlns="http://www.w3.org/2000/svg">
<path d="M68.5204 62.7908C70.4663 62.7887 72.4081 62.612 74.3224 62.263C89.158 59.5501 99.9267 46.4313 99.9267 31.0771C99.9445 29.6209 99.8448 28.1657 99.6283 26.7256C99.5319 26.0003 99.2978 25.3164 98.288 25.1787C95.0372 24.7161 91.7345 24.7595 88.497 25.3072C80.7096 26.6051 73.7126 30.8302 68.9381 37.1178C68.8406 37.264 68.7159 37.3903 68.5709 37.4896C68.4129 37.3575 68.2752 37.2029 68.1624 37.0306C60.7583 27.919 51.05 23.9026 39.3082 25.0961C37.8164 25.2475 37.5731 26.1289 37.4492 27.0148C36.9499 30.4837 37.0477 34.0124 37.7384 37.4483C39.1423 44.5828 42.9783 51.0092 48.592 55.6309C54.2056 60.2525 61.249 62.7831 68.5204 62.7908ZM70.0948 38.6142V39.748C69.7506 39.3257 69.7506 39.0824 70.0948 38.6142ZM52.1012 28.0017C53.8764 28.5509 55.5974 29.2623 57.2422 30.1269C57.3823 30.176 57.5015 30.2715 57.5799 30.3976C57.6584 30.5236 57.6915 30.6726 57.6737 30.82C57.6737 34.4555 57.6737 38.0955 57.6737 41.5657V43.6726L52.1976 38.6234C52.1195 38.5545 52.1104 38.4627 52.115 38.2424V28.0017H52.1012ZM79.4176 30.8751C79.4043 30.7253 79.4426 30.5753 79.526 30.4501C79.6095 30.325 79.7332 30.232 79.8766 30.1866C81.4978 29.3342 83.1866 28.6172 84.9258 28.043L85.1599 27.9741C85.1847 28.0809 85.194 28.1906 85.1875 28.3C85.1875 31.5866 85.1875 34.8732 85.1875 38.1598C85.2024 38.2823 85.1894 38.4065 85.1497 38.5233C85.11 38.6402 85.0444 38.7465 84.958 38.8345L79.4176 44.0307V41.7723C79.4176 38.1919 79.4176 34.5335 79.4176 30.8751ZM86.9226 27.8318C86.9226 27.5013 86.9226 27.4738 87.198 27.4141C89.3656 26.9425 91.5759 26.6948 93.7942 26.6751C94.7666 26.6747 95.7382 26.7299 96.7043 26.8403L86.9042 35.8739V34.9099C86.9042 32.8122 86.9042 30.4115 86.9042 28.0246C86.9088 27.9512 86.9042 27.8915 86.9042 27.8318H86.9226ZM72.0044 36.443C72.0317 36.3282 72.0905 36.2233 72.1742 36.1401C73.785 34.3662 75.6197 32.8093 77.632 31.5086C77.632 32.5001 77.632 33.4778 77.5999 34.4509C77.5585 37.205 77.5172 39.7939 77.6963 42.4287C77.9028 45.4949 77.0582 47.5284 74.9421 49.0156C74.6378 49.2559 74.3648 49.5335 74.1297 49.8419C73.8348 48.1731 73.3497 46.5437 72.6837 44.9854C71.8345 43.1493 71.9126 41.2582 71.9952 39.266C72.0488 38.3259 72.0518 37.3835 72.0044 36.443ZM93.4682 47.3264C92.2134 49.3112 90.7332 51.1442 89.057 52.7888C88.8505 52.9953 88.598 52.9999 88.217 52.9999H85.1691C81.8733 52.9999 78.5745 52.9999 75.2726 52.9999C75.169 52.9999 75.0658 53.0122 74.9651 53.0366C74.8806 53.0549 74.7944 53.0641 74.708 53.0642C74.6866 53.0308 74.6725 52.9933 74.6667 52.954C74.6667 52.8622 74.6254 52.775 74.6024 52.6832C74.5015 52.2884 74.4693 52.1002 74.7264 51.8524C75.828 50.792 76.9067 49.6812 77.9395 48.6071L78.8209 47.6891C78.9188 47.5795 79.0392 47.4925 79.1739 47.4339C79.3086 47.3752 79.4543 47.3464 79.6012 47.3494H93.4637L93.4682 47.3264ZM74.6851 55.1665C74.6851 54.8957 74.7172 54.8222 74.7356 54.8085C74.7539 54.7947 74.832 54.7396 75.1303 54.7396C78.1828 54.7396 81.2353 54.7396 84.4393 54.7396H86.6701C83.0976 57.5335 78.9287 59.4656 74.4877 60.3856C74.7349 58.6575 74.801 56.9083 74.6851 55.1665ZM87.9462 37.9762L98.0217 28.5846C98.2615 30.3324 98.2708 32.104 98.0493 33.8542C98.0126 34.2214 98.0034 34.6253 97.9942 35.0339C97.9942 36.1768 97.9483 37.3611 97.2598 37.8706C96.7043 38.2791 95.6624 38.1919 94.6571 38.1047C94.2256 38.068 93.7758 38.0267 93.3581 38.0267H93.303C92.0131 38.0267 90.7279 38.0267 89.438 38.0267H87.9738L87.9462 37.9762ZM96.5345 39.8628H96.5758C96.6851 39.8618 96.7942 39.871 96.9017 39.8903C96.8855 40.049 96.8437 40.204 96.7778 40.3493C96.7436 40.4111 96.7144 40.4756 96.6906 40.5421L96.5621 41.0011C96.1306 42.5113 95.6853 44.072 94.726 45.068C93.9824 45.8346 92.8577 45.6969 91.6643 45.5271C91.1895 45.4617 90.7113 45.4234 90.2321 45.4123H90.0577C87.8269 45.4903 85.6098 45.472 83.2596 45.4582H81.0517L82.0156 44.4576C83.4478 42.9703 84.8111 41.552 86.1468 40.1244C86.2517 40.0251 86.3774 39.9504 86.5148 39.9059C86.6522 39.8615 86.7978 39.8483 86.941 39.8673H89.1993C91.6 39.8949 94.1063 39.9041 96.5345 39.8628ZM47.107 38.0267H40.1712C39.7856 38.0267 39.7122 37.9578 39.625 37.6273C39.0163 34.6414 38.8478 31.5826 39.1246 28.5479L48.8054 38.0221L47.107 38.0267ZM53.5333 45.4674C50.0907 45.4674 46.648 45.4674 43.2099 45.4674C43.0084 45.5029 42.8008 45.4669 42.6231 45.3654C42.4453 45.264 42.3087 45.1036 42.2368 44.912C41.5031 43.3778 40.8594 41.8023 40.3089 40.1932C40.2746 40.0949 40.25 39.9934 40.2355 39.8903C40.3455 39.884 40.4559 39.884 40.566 39.8903C43.8036 39.9087 47.0412 39.9087 50.2789 39.8903C50.4236 39.8873 50.5675 39.9138 50.7017 39.9682C50.8359 40.0227 50.9575 40.1039 51.0592 40.207C52.4852 41.6269 53.922 43.0376 55.3694 44.4392L56.4389 45.4858L53.5333 45.4674ZM57.5544 54.7488C59.9229 54.7488 62.2869 54.7488 64.6554 54.7488C64.9033 54.738 65.1503 54.7845 65.3772 54.8848C65.6042 54.9852 65.8048 55.1365 65.9637 55.3272C67.3774 56.7593 68.8555 58.1685 70.2876 59.5364L71.6647 60.8675C63.8613 61.5698 56.8383 59.518 50.7884 54.758L57.5544 54.7488ZM56.5216 52.9724C55.9432 52.9724 55.3602 52.9724 54.7819 52.9448C53.449 52.8799 52.1133 52.9044 50.7838 53.0183C48.9477 53.2111 47.6441 52.6143 46.4736 51.0766C46.2104 50.7369 45.9442 50.3973 45.6749 50.0576C44.9497 49.1865 44.2856 48.2662 43.6873 47.3035H49.1956C51.7799 47.3035 54.456 47.3035 57.0862 47.3035C57.4208 47.2936 57.7536 47.3561 58.0618 47.4869C58.37 47.6176 58.6463 47.8134 58.8718 48.0609C60.1433 49.3232 61.4698 50.5717 62.7505 51.7789L64.0128 52.9724H56.5216ZM66.9551 53.133V38.5178C69.1379 41.4311 70.7641 44.7224 71.7519 48.2261C72.7945 51.8306 73.122 55.6042 72.7159 59.3344L67.1158 53.8262C66.9414 53.6747 66.9322 53.4773 66.9414 53.1376L66.9551 53.133ZM65.1879 49.2268V51.8111L64.2331 50.8563C62.7321 49.3553 61.3 47.9232 59.8632 46.4956C59.767 46.4135 59.6889 46.3124 59.6336 46.1987C59.5783 46.0849 59.5471 45.961 59.5419 45.8346V31.5453C61.5626 32.8393 63.4131 34.3814 65.0502 36.1355C65.1971 36.2824 65.1971 36.4385 65.1925 36.7231V36.8562C65.1879 40.9415 65.1879 45.0267 65.1879 49.2268ZM40.5292 26.8541C43.0122 26.5243 45.532 26.5941 47.9929 27.0607C50.3248 27.4462 50.3248 27.4462 50.3248 29.8423V36.1906L40.5292 26.8541Z" fill="black"/>
<path d="M41.1717 20.7402L41.5435 20.7126C42.5166 20.6392 43.5219 20.5611 44.5042 20.5841C53.3863 20.7631 60.9785 24.0818 67.0697 30.4393C67.5563 30.9488 67.9327 31.1645 68.3274 31.1645C68.5778 31.1309 68.8188 31.0469 69.0357 30.9175C69.2527 30.7881 69.4412 30.616 69.5897 30.4117C72.9756 26.8014 77.1758 24.0532 81.8398 22.3963C86.5039 20.7394 91.4965 20.2219 96.4012 20.887C96.6016 20.9251 96.8084 20.9113 97.002 20.847C97.1956 20.7828 97.3696 20.6702 97.5075 20.5198C97.6084 20.3573 97.6665 20.1718 97.6761 19.9807C97.6857 19.7896 97.6467 19.5992 97.5625 19.4274C97.4386 19.0785 97.2917 18.7205 97.1035 18.3303C90.9618 4.67903 75.4147 -2.78465 60.9372 0.965549C51.238 3.48098 44.1278 9.4712 39.8222 18.7756C39.4687 19.5238 39.3172 20.0333 39.5697 20.4005C39.8222 20.7677 40.3271 20.7998 41.1717 20.7402ZM54.6991 20.0103C57.4532 14.3322 62.0939 11.2889 68.4697 11.0089C74.7859 11.3165 79.2521 14.1532 82.1256 19.6752C82.2909 20.0011 82.3597 20.2077 82.3276 20.2903C82.2955 20.3729 82.222 20.4418 81.7814 20.5841C76.7783 22.1921 72.2509 25.0133 68.6028 28.796C68.3458 29.0576 68.2632 29.0852 68.2402 29.0852C68.2173 29.0852 68.1484 29.0852 67.9143 28.8373C64.2795 25.1082 59.8048 22.3035 54.8643 20.6575C54.5843 20.5657 54.5476 20.4877 54.5476 20.4831C54.5476 20.4785 54.5476 20.3179 54.6991 20.0103ZM54.7404 16.3657L54.6302 16.1591C54.5928 16.085 54.5605 16.0083 54.5338 15.9296C54.4809 15.7487 54.3735 15.5884 54.2263 15.4706C53.3156 14.8637 52.3234 14.3893 51.2794 14.0614C51.1564 14.0246 51.0265 14.0166 50.9 14.0381C50.7734 14.0596 50.6535 14.11 50.5495 14.1853C50.4561 14.2418 50.3766 14.3185 50.317 14.4099C50.2574 14.5013 50.2192 14.605 50.2052 14.7132C50.1846 14.9321 50.2311 15.1521 50.3385 15.344C50.4459 15.5358 50.6092 15.6905 50.8066 15.7873L51.7246 16.2234C52.2295 16.4667 52.7299 16.71 53.2394 16.9395C53.3644 16.9983 53.5006 17.0296 53.6387 17.0313C53.9114 17.0138 54.1695 16.9018 54.3686 16.7145L54.5109 16.609L54.6302 16.5264C54.051 17.3864 53.534 18.2869 53.0833 19.2208L53.0512 19.2942C52.7758 19.8726 52.7115 20.0103 52.1331 19.8588C49.6523 19.2024 47.0979 18.8646 44.5317 18.8536C43.6119 18.8545 42.6927 18.902 41.7776 18.9959C45.3442 10.4856 54.8551 2.01212 68.3641 1.92031H68.5523C81.7125 1.92031 91.3244 10.4076 95.1756 19.028C93.2399 18.8492 91.2923 18.8415 89.3552 19.0051C87.7955 19.1235 86.248 19.3691 84.7283 19.7395C84.2325 19.8726 84.1637 19.8038 83.9112 19.2805C80.7348 12.643 75.5387 9.27841 68.4743 9.27841H68.4422C62.6126 9.27841 57.9398 11.725 54.7404 16.3657Z" fill="black"/>
<path d="M67.8039 7.86956C67.8952 7.96442 68.0051 8.03946 68.1267 8.09C68.2484 8.14055 68.3791 8.16551 68.5108 8.16333H68.575C68.7054 8.17289 68.8363 8.1545 68.959 8.10938C69.0817 8.06425 69.1934 7.99344 69.2865 7.90169C69.397 7.7423 69.4718 7.56099 69.5058 7.37009C69.5399 7.17919 69.5324 6.9832 69.4839 6.79545C69.4594 6.62496 69.4594 6.45184 69.4839 6.28135C69.5059 6.15684 69.5059 6.02945 69.4839 5.90495V5.47347C69.4839 5.23937 69.4839 5.01445 69.4839 4.77576V4.63805C69.5066 4.45813 69.4936 4.27548 69.4455 4.10061C69.3975 3.92574 69.3154 3.76208 69.2039 3.61903C69.1107 3.53598 69.0017 3.4728 68.8833 3.43334C68.7649 3.39388 68.6397 3.37897 68.5154 3.38952C67.5973 3.42624 67.5973 4.24329 67.5973 4.63805V4.99609C67.5607 5.38386 67.5607 5.77423 67.5973 6.162C67.6148 6.32986 67.6148 6.49907 67.5973 6.66692C67.5492 6.87098 67.5427 7.08264 67.5782 7.28926C67.6137 7.49589 67.6904 7.69325 67.8039 7.86956Z" fill="black"/>
<path d="M74.8592 9.44847L75.0336 9.50814L75.1851 9.39339C75.2162 9.3683 75.2501 9.34675 75.286 9.32913C75.4806 9.23939 75.6415 9.08982 75.7451 8.90224C76.1306 8.01174 76.53 7.02943 76.9569 5.90024C77.0159 5.7182 77.0059 5.52082 76.9289 5.34564C76.8519 5.17045 76.7132 5.02968 76.5392 4.95007C76.4345 4.88176 76.317 4.83554 76.1939 4.81423C76.0708 4.79292 75.9446 4.79697 75.8231 4.82613C75.726 4.85366 75.6353 4.90033 75.5565 4.96339C75.4777 5.02646 75.4122 5.10464 75.3641 5.19335C74.7881 6.23288 74.3572 7.34641 74.0834 8.50289C73.909 9.12716 74.5746 9.35208 74.8592 9.44847Z" fill="black"/>
<path d="M62.2958 9.43826C62.3934 9.46112 62.4947 9.4627 62.5929 9.4429C62.6912 9.4231 62.784 9.38238 62.865 9.3235C62.9614 9.25006 63.4388 8.86448 63.3241 8.46972C63.0395 7.28797 62.5898 6.1522 61.9883 5.09592C61.9358 5.02077 61.8675 4.95801 61.7882 4.91202C61.709 4.86603 61.6206 4.83793 61.5293 4.82969H61.4604L61.3686 4.79297H61.2722C60.6663 4.91231 60.4001 5.2015 60.4781 5.65593C60.7272 6.84678 61.1576 7.99236 61.7542 9.05268C61.8115 9.15208 61.8895 9.23797 61.983 9.30451C62.0765 9.37104 62.1832 9.41666 62.2958 9.43826Z" fill="black"/>
<path d="M79.6194 12.1655C79.6915 12.1835 79.7655 12.1928 79.8398 12.193C80.0985 12.1874 80.3452 12.0821 80.5283 11.8992C81.2435 11.1426 81.9017 10.3341 82.4975 9.48018C82.5909 9.35531 82.6491 9.20769 82.666 9.05269C82.683 8.89768 82.6581 8.74097 82.5939 8.59886C82.5104 8.45391 82.3888 8.33454 82.2424 8.25364C82.096 8.17275 81.9302 8.13339 81.7631 8.13984C81.1434 8.18574 80.0371 9.59953 79.8214 9.88412C78.9584 11.0179 79.0273 11.353 79.0548 11.4769C79.0728 11.6338 79.1357 11.7822 79.2358 11.9043C79.3359 12.0264 79.4691 12.1171 79.6194 12.1655Z" fill="black"/>
<path d="M57.2843 12.1746C57.3918 12.1759 57.4982 12.154 57.5965 12.1104C57.7422 12.0436 57.8642 11.9341 57.9462 11.7964C58.0282 11.6586 58.0663 11.4992 58.0555 11.3392C58.1152 10.6874 56.0037 8.21788 55.3335 8.15361C55.1987 8.12947 55.06 8.14186 54.9316 8.18949C54.8033 8.23711 54.69 8.31824 54.6037 8.42444C54.5275 8.53537 54.48 8.66349 54.4656 8.79729C54.4512 8.93109 54.4702 9.06638 54.521 9.191C54.98 10.334 55.7879 11.1327 56.7519 11.9864C56.9014 12.1105 57.0901 12.1772 57.2843 12.1746Z" fill="black"/>
<path d="M82.2866 15.3328C82.2566 15.4384 82.2484 15.5491 82.2626 15.658C82.2769 15.7669 82.3131 15.8718 82.3692 15.9662C82.4534 16.1075 82.5732 16.2242 82.7166 16.3047C82.8599 16.3852 83.0219 16.4268 83.1863 16.4252C83.3748 16.4219 83.5594 16.3714 83.7233 16.2784C84.343 15.9387 84.9765 15.622 85.6053 15.3052L85.8899 15.1584C86.231 14.9535 86.4795 14.6245 86.5831 14.2403L86.6978 13.9741L86.5785 13.8134C86.4363 13.5913 86.2164 13.4301 85.9618 13.3614C85.7072 13.2926 85.4361 13.3212 85.2014 13.4416C84.5588 13.7492 83.9207 14.0888 83.301 14.4147L82.7824 14.6902C82.6592 14.7565 82.5515 14.848 82.4661 14.9587C82.3806 15.0694 82.3195 15.1969 82.2866 15.3328Z" fill="black"/>
<path d="M17.4229 91.604V91.3469C17.3651 90.8656 17.1192 90.4267 16.739 90.1259C16.5899 89.93 16.403 89.766 16.1893 89.6438C15.9756 89.5216 15.7395 89.4436 15.495 89.4144H15.1967L14.9901 89.6302C13.7737 90.8971 12.1579 91.5122 10.051 91.5122C8.08642 91.5122 6.56247 90.9062 5.39196 89.6761C4.22146 88.4459 3.62932 86.7567 3.62932 84.6728C3.62932 82.5888 4.1985 80.9639 5.36901 79.7061C6.53952 78.4484 8.04511 77.8701 10.0235 77.8701C11.4743 77.8089 12.9015 78.2517 14.0629 79.1232V81.0694C14.0958 81.4632 14.2781 81.8294 14.5724 82.0931C14.7011 82.2476 14.8597 82.3745 15.0388 82.4661C15.2179 82.5576 15.4137 82.6118 15.6144 82.6255C16.0137 82.5897 16.3829 82.3985 16.6426 82.0931C16.9491 81.8323 17.1404 81.4612 17.1751 81.0603V77.6038L16.9731 77.4019C16.0476 76.4891 14.9461 75.7742 13.7356 75.3007C12.5251 74.8273 11.2308 74.6051 9.93169 74.6477C8.61375 74.6059 7.30135 74.8362 6.07641 75.3243C4.85147 75.8124 3.74029 76.5478 2.81226 77.4845C1.0041 79.4425 0 82.0099 0 84.675C0 87.3402 1.0041 89.9076 2.81226 91.8656C3.74978 92.8059 4.87014 93.544 6.10414 94.0343C7.33814 94.5246 8.65956 94.7566 9.98677 94.7161C12.9429 94.7161 15.3803 93.7384 17.2164 91.8059L17.4229 91.604Z" fill="black"/>
<path d="M39.7269 84.6725C39.7636 83.3486 39.5329 82.0309 39.0486 80.7981C38.5644 79.5654 37.8365 78.443 36.9085 77.498C35.986 76.5582 34.8799 75.8184 33.6589 75.3248C32.438 74.8312 31.1285 74.5944 29.812 74.6291C28.4974 74.5927 27.1894 74.8288 25.9705 75.3225C24.7516 75.8163 23.648 76.557 22.7293 77.498C20.926 79.453 19.9248 82.0152 19.9248 84.6748C19.9248 87.3345 20.926 89.8966 22.7293 91.8516C23.6489 92.7912 24.7527 93.5306 25.9715 94.0234C27.1903 94.5163 28.4978 94.7521 29.812 94.7159C31.1281 94.7504 32.4371 94.5139 33.6579 94.0212C34.8787 93.5285 35.9852 92.79 36.9085 91.8516C37.8366 90.9058 38.5645 89.7825 39.0488 88.5491C39.533 87.3156 39.7637 85.9971 39.7269 84.6725ZM36.1006 84.6725C36.1006 86.7427 35.5314 88.3447 34.3518 89.6299C33.7741 90.2491 33.0692 90.7359 32.2855 91.0568C31.5019 91.3777 30.6581 91.5251 29.812 91.489C28.9703 91.5232 28.1311 91.3748 27.3522 91.0539C26.5733 90.733 25.8731 90.2472 25.2998 89.6299C24.1202 88.363 23.551 86.7427 23.551 84.6725C23.551 82.6023 24.1156 81.0004 25.2861 79.7151C25.8626 79.0997 26.5659 78.6168 27.3473 78.2998C28.1287 77.9828 28.9697 77.8392 29.812 77.879C30.6565 77.8387 31.4996 77.982 32.2833 78.299C33.0671 78.616 33.7727 79.0991 34.3518 79.7151C35.5314 80.982 36.1006 82.6253 36.1006 84.6725Z" fill="black"/>
<path d="M45.0825 87.95C44.8213 87.6586 44.4617 87.4739 44.0727 87.4313C43.8736 87.4489 43.6802 87.5068 43.5043 87.6015C43.3283 87.6962 43.1734 87.8257 43.0491 87.9821C42.7671 88.2466 42.5936 88.6066 42.5625 88.992V92.3841L42.815 92.5907C44.5951 94.0312 46.833 94.7853 49.1219 94.716C51.261 94.716 52.9731 94.2248 54.2079 93.2609C54.848 92.755 55.3584 92.104 55.6969 91.3616C56.0353 90.6193 56.1921 89.807 56.1541 88.992C56.1786 88.3915 56.0718 87.7929 55.8411 87.2379C55.6104 86.6829 55.2614 86.185 54.8184 85.7788C54.0289 85.0765 52.5233 84.2136 50.2741 83.1395C49.0775 82.6364 47.931 82.0216 46.8498 81.3034C46.6416 81.1645 46.4713 80.976 46.3543 80.7548C46.2372 80.5336 46.1772 80.2867 46.1796 80.0365C46.1684 79.7387 46.2298 79.4427 46.3586 79.174C46.4873 78.9053 46.6795 78.672 46.9186 78.4942C47.6103 78.0152 48.4428 77.7824 49.2826 77.8332C50.3613 77.8105 51.4193 78.132 52.3029 78.7512V80.3899C52.3706 80.7797 52.5567 81.139 52.836 81.4191C53.1152 81.6992 53.4741 81.8864 53.8636 81.9552C54.063 81.9382 54.2569 81.8811 54.4336 81.7872C54.6103 81.6933 54.7662 81.5647 54.8918 81.409C55.187 81.1479 55.3696 80.7827 55.4013 80.3899V76.9978L55.181 76.7912C53.5886 75.339 51.4917 74.5664 49.3377 74.6384C47.3088 74.6384 45.693 75.1341 44.5409 76.1164C43.9558 76.61 43.4906 77.2301 43.1805 77.9299C42.8704 78.6297 42.7234 79.3909 42.7507 80.1558C42.7195 80.7969 42.8263 81.4373 43.0639 82.0336C43.3014 82.6299 43.6642 83.1682 44.1278 83.6122C44.977 84.3972 46.377 85.2142 48.4104 86.1093L48.9245 86.3434C50.0462 86.7935 51.1221 87.3499 52.1377 88.0051C52.3161 88.1321 52.4594 88.3023 52.5542 88.4998C52.6489 88.6973 52.692 88.9156 52.6793 89.1343C52.6944 89.4718 52.6215 89.8075 52.4678 90.1085C52.3141 90.4094 52.0849 90.6653 51.8026 90.851C50.989 91.3548 50.0409 91.5982 49.0852 91.5487C47.8483 91.5994 46.6271 91.2571 45.5966 90.571V89.0012C45.57 88.5968 45.3853 88.2193 45.0825 87.95Z" fill="black"/>
<path d="M73.8534 94.5326V91.4342H63.8559V86.082H72.6737V82.9561H63.8559V77.9069H73.7248V74.8223H59.4401C59.2442 74.8365 59.0532 74.8897 58.8782 74.9787C58.7032 75.0678 58.5478 75.191 58.421 75.341C58.122 75.6001 57.936 75.9657 57.9023 76.36C57.9159 76.5567 57.9703 76.7485 58.062 76.9232C58.1536 77.0978 58.2806 77.2515 58.4348 77.3744C58.5616 77.519 58.7156 77.6372 58.8881 77.7223C59.0606 77.8073 59.2482 77.8576 59.4401 77.8702H60.3581V94.5418L73.8534 94.5326Z" fill="black"/>
<path d="M91.1046 82.0832C91.2309 82.2378 91.387 82.3655 91.5636 82.4586C91.7403 82.5516 91.9339 82.6082 92.1328 82.6248C92.524 82.5599 92.8849 82.3739 93.1649 82.0932C93.4449 81.8124 93.6297 81.4509 93.6935 81.0595V77.6031L93.4915 77.4011C91.5688 75.6058 89.0321 74.6142 86.4016 74.6296C83.7711 74.6449 81.2461 75.6661 79.3445 77.4838C77.5363 79.4418 76.5322 82.0091 76.5322 84.6743C76.5322 87.3395 77.5363 89.9069 79.3445 91.8649C80.282 92.8052 81.4024 93.5433 82.6364 94.0336C83.8704 94.5238 85.1918 94.7559 86.519 94.7154C89.4797 94.7154 91.9125 93.7377 93.7486 91.8052L93.9414 91.6032V91.3462C93.8276 90.8785 93.5877 90.451 93.2478 90.1103C92.9078 89.7695 92.4809 89.5286 92.0135 89.4137H91.7151L91.5086 89.6294C90.2922 90.8963 88.6764 91.5114 86.5695 91.5114C84.6049 91.5114 83.0809 90.9055 81.9104 89.6754C80.7399 88.4452 80.1478 86.7927 80.1478 84.7087C80.1478 82.6248 80.717 80.9999 81.8875 79.7421C83.058 78.4844 84.5636 77.9061 86.542 77.9061C87.9927 77.8449 89.4199 78.2877 90.5813 79.1592V81.1054C90.629 81.4848 90.8154 81.8331 91.1046 82.0832Z" fill="black"/>
<path d="M97.2369 74.8223C97.0411 74.8365 96.8501 74.8897 96.6751 74.9787C96.5001 75.0678 96.3446 75.191 96.2179 75.341C95.9189 75.6001 95.7328 75.9657 95.6992 76.36C95.7131 76.5562 95.7671 76.7475 95.8579 76.922C95.9487 77.0965 96.0743 77.2505 96.2271 77.3744C96.4852 77.6663 96.8481 77.8445 97.2369 77.8702H98.155V94.5418H101.648V86.082H111.136V94.5326H114.629V74.8223H111.136V82.9653H101.653V74.8223H97.2369Z" fill="black"/>
<path d="M128.574 74.8223H124.145C123.75 74.8539 123.384 75.0404 123.126 75.341C122.966 75.4552 122.835 75.606 122.745 75.7808C122.655 75.9557 122.608 76.1495 122.608 76.3462C122.608 76.5429 122.655 76.7367 122.745 76.9116C122.835 77.0864 122.966 77.2373 123.126 77.3515C123.384 77.6512 123.75 77.8375 124.145 77.8702H124.448L117.608 92.9857V93.1372C117.608 93.6513 118.035 93.89 118.797 94.2618C119.204 94.5126 119.662 94.6694 120.138 94.7208H120.597L122.951 89.3824H131.384L133.738 94.7208H134.197C134.678 94.6714 135.14 94.5146 135.552 94.2618C136.263 93.9175 136.731 93.6559 136.731 93.1234V92.9765L128.574 74.8223ZM130.052 86.2978H124.301L127.156 79.798L130.052 86.2978Z" fill="black"/>
<path d="M16.8812 101.188C16.6855 101.203 16.4946 101.256 16.3197 101.345C16.1447 101.434 15.9892 101.557 15.8622 101.707C15.7021 101.82 15.5715 101.971 15.4814 102.145C15.3913 102.32 15.3443 102.513 15.3443 102.71C15.3443 102.906 15.3913 103.1 15.4814 103.274C15.5715 103.449 15.7021 103.599 15.8622 103.713C15.9892 103.862 16.1447 103.985 16.3197 104.074C16.4946 104.163 16.6855 104.217 16.8812 104.231H17.1842L10.3447 119.347V119.498C10.3447 120.012 10.7716 120.247 11.5336 120.618C11.9412 120.868 12.3989 121.025 12.8739 121.077H13.333L15.6923 115.734H24.12L26.4748 121.077H26.9338C27.4218 121.031 27.8928 120.874 28.3108 120.618C29.0223 120.274 29.4905 120.008 29.4905 119.48V119.347L21.3108 101.188H16.8812ZM22.7888 112.664H17.0373L19.8924 106.187L22.7888 112.664Z" fill="black"/>
<path d="M45.9633 114.422L35.3507 101.188H32.11C31.9147 101.202 31.7242 101.255 31.5499 101.344C31.3756 101.433 31.2211 101.557 31.0956 101.707C30.9456 101.833 30.8222 101.988 30.7324 102.162C30.6426 102.336 30.5881 102.526 30.5723 102.721C30.585 102.919 30.6389 103.112 30.7306 103.287C30.8223 103.463 30.9498 103.617 31.1047 103.74C31.3611 104.032 31.7226 104.21 32.11 104.236H33.028V120.908H36.3376V107.67L46.9502 120.908H49.2453V101.17H45.9633V114.422Z" fill="black"/>
<path d="M61.7914 101.188H53.4694C53.2735 101.202 53.0825 101.255 52.9075 101.344C52.7325 101.433 52.5771 101.556 52.4503 101.706C52.1508 101.963 51.9645 102.328 51.9316 102.721C51.945 102.918 51.9992 103.109 52.0909 103.284C52.1826 103.459 52.3097 103.612 52.4641 103.735C52.5909 103.88 52.7449 103.998 52.9174 104.083C53.0899 104.168 53.2775 104.218 53.4694 104.231H54.3874V120.907H61.7914C63.0897 120.948 64.3826 120.722 65.5899 120.243C66.7972 119.763 67.8932 119.041 68.8099 118.121C70.5733 116.187 71.5508 113.664 71.5508 111.047C71.5508 108.43 70.5733 105.908 68.8099 103.974C67.8939 103.053 66.798 102.33 65.5905 101.85C64.3831 101.371 63.0899 101.145 61.7914 101.188ZM67.9423 111.047C67.9423 113.118 67.3961 114.72 66.2669 115.982C65.7047 116.597 65.0138 117.08 64.2434 117.398C63.473 117.715 62.642 117.859 61.8098 117.818H57.9035V104.286H61.8098C62.642 104.246 63.4727 104.39 64.243 104.707C65.0134 105.024 65.7044 105.508 66.2669 106.122C67.3777 107.357 67.9423 108.973 67.9423 111.047Z" fill="black"/>
<path d="M82.576 104.231C82.9575 104.171 83.3105 103.992 83.5861 103.722C83.8616 103.451 84.0461 103.101 84.1137 102.721C84.0538 102.335 83.8723 101.979 83.5958 101.703C83.3193 101.427 82.9621 101.247 82.576 101.188H75.195C74.8089 101.247 74.4517 101.427 74.1752 101.703C73.8986 101.979 73.7172 102.335 73.6572 102.721C73.6707 102.918 73.7246 103.11 73.8154 103.285C73.9062 103.461 74.032 103.615 74.1851 103.74C74.4469 104.026 74.8081 104.202 75.195 104.231H77.1228V117.86H75.195C74.8073 117.89 74.4459 118.067 74.1851 118.355C74.0324 118.479 73.9067 118.633 73.8159 118.808C73.7251 118.982 73.6711 119.174 73.6572 119.37C73.7163 119.756 73.8973 120.114 74.1739 120.391C74.4505 120.667 74.8083 120.848 75.195 120.908H82.576C82.7719 120.893 82.9629 120.84 83.1379 120.751C83.3129 120.662 83.4683 120.539 83.5951 120.389C83.8941 120.13 84.0801 119.764 84.1137 119.37C84.0756 118.985 83.8897 118.629 83.5951 118.378C83.4683 118.228 83.3129 118.105 83.1379 118.016C82.9629 117.927 82.7719 117.874 82.576 117.86H80.6298V104.231H82.576Z" fill="black"/>
<path d="M100.594 114.422L89.9765 101.188H86.7633C86.5673 101.202 86.3761 101.255 86.2011 101.344C86.026 101.433 85.8707 101.557 85.7443 101.707C85.5952 101.834 85.4726 101.988 85.3836 102.162C85.2946 102.336 85.2409 102.526 85.2256 102.721C85.2389 102.918 85.2927 103.109 85.3835 103.284C85.4743 103.458 85.6003 103.612 85.7535 103.736C86.0116 104.028 86.3745 104.206 86.7633 104.232H87.6814V120.908H90.9909V107.67L101.603 120.908H103.899V101.17H100.617L100.594 114.422Z" fill="black"/>
<path d="M113.385 101.188C113.19 101.203 113 101.257 112.826 101.346C112.652 101.435 112.497 101.557 112.37 101.706C112.22 101.832 112.096 101.986 112.007 102.16C111.918 102.335 111.865 102.525 111.852 102.721C111.92 103.1 112.104 103.449 112.378 103.72C112.653 103.99 113.004 104.169 113.385 104.231H113.688L106.844 119.347V119.498C106.844 120.012 107.275 120.246 108.033 120.618C108.442 120.868 108.901 121.025 109.378 121.077H109.837L112.191 115.734H120.624L122.983 121.077H123.442C123.921 121.027 124.382 120.87 124.792 120.618C125.503 120.274 125.971 120.008 125.971 119.48V119.347L117.824 101.183L113.385 101.188ZM119.297 112.663H113.536L116.396 106.186L119.297 112.663Z" fill="black"/>
</svg>
